<svg width="126" height="39" viewBox="0 0 126 39" fill="none" xmlns="http://www.w3.org/2000/svg">
<path d="M32.104 32.048C31.9013 32.048 31.7147 32.0053 31.544 31.92C31.3733 31.824 31.2507 31.664 31.176 31.44C31.1013 31.1947 31.064 30.8907 31.064 30.528C31.064 30.3467 31.0747 30.1653 31.096 29.984C31.128 29.792 31.1653 29.6267 31.208 29.488C31.1547 29.584 31.0533 29.7653 30.904 30.032C30.7547 30.288 30.568 30.5707 30.344 30.88C30.12 31.1787 29.864 31.44 29.576 31.664C29.2987 31.8773 28.9947 31.984 28.664 31.984C28.2373 31.984 27.944 31.8773 27.784 31.664C27.624 31.44 27.544 31.1733 27.544 30.864C27.544 30.4907 27.6187 30.1067 27.768 29.712C27.928 29.3067 28.088 28.9867 28.248 28.752C28.3227 28.6453 28.4347 28.4853 28.584 28.272C28.7333 28.0587 28.8773 27.8613 29.016 27.68C29.1653 27.488 29.2667 27.3813 29.32 27.36C29.384 27.3387 29.4533 27.3227 29.528 27.312C29.6027 27.3013 29.6773 27.296 29.752 27.296C29.9227 27.296 30.0613 27.328 30.168 27.392C30.2747 27.424 30.328 27.4773 30.328 27.552C30.328 27.584 30.3013 27.6267 30.248 27.68C30.1307 27.776 29.944 27.968 29.688 28.256C29.432 28.544 29.176 28.8747 28.92 29.248C28.6747 29.6107 28.488 29.9733 28.36 30.336C28.2213 30.6773 28.152 30.96 28.152 31.184C28.152 31.504 28.2693 31.664 28.504 31.664C28.728 31.664 29.048 31.4987 29.464 31.168C29.7627 30.9333 30.0507 30.64 30.328 30.288C30.6053 29.936 30.8613 29.568 31.096 29.184C31.3413 28.7893 31.56 28.4267 31.752 28.096C31.784 28.0213 31.8747 27.984 32.024 27.984C32.2053 27.984 32.3813 28.0267 32.552 28.112C32.7333 28.1867 32.7867 28.2773 32.712 28.384C32.4027 28.8853 32.168 29.424 32.008 30C31.976 30.128 31.9387 30.288 31.896 30.48C31.864 30.6613 31.848 30.8427 31.848 31.024C31.848 31.216 31.88 31.3813 31.944 31.52C32.008 31.6587 32.1253 31.728 32.296 31.728C32.3813 31.728 32.4667 31.7173 32.552 31.696C32.648 31.664 32.7547 31.6107 32.872 31.536C33.2773 31.3227 33.672 31.0347 34.056 30.672C34.4507 30.2987 34.7973 29.888 35.096 29.44C35.3947 28.9813 35.592 28.5333 35.688 28.096C35.72 27.968 35.736 27.8133 35.736 27.632C35.736 27.4187 35.6987 27.216 35.624 27.024C35.56 26.8213 35.4373 26.6827 35.256 26.608C35.192 26.5867 35.1227 26.576 35.048 26.576C34.9733 26.5653 34.8933 26.5653 34.808 26.576H34.776C34.7227 26.576 34.696 26.5493 34.696 26.496C34.696 26.4427 34.7227 26.4053 34.776 26.384C34.904 26.352 35.0693 26.336 35.272 26.336C35.464 26.336 35.656 26.368 35.848 26.432C36.0507 26.496 36.1893 26.6187 36.264 26.8C36.3493 27.0027 36.392 27.2053 36.392 27.408C36.392 27.8027 36.2747 28.224 36.04 28.672C35.816 29.12 35.528 29.552 35.176 29.968C34.8987 30.3093 34.5893 30.6293 34.248 30.928C33.9067 31.2267 33.6133 31.4613 33.368 31.632C33.2293 31.7387 33.0427 31.8347 32.808 31.92C32.584 32.0053 32.3493 32.048 32.104 32.048ZM37.8773 32.24C37.3973 32.24 36.9813 32.128 36.6293 31.904C36.2773 31.68 36.1013 31.3387 36.1013 30.88C36.1013 30.6347 36.1759 30.336 36.3253 29.984C36.4319 29.7387 36.6293 29.456 36.9173 29.136C37.2053 28.816 37.5413 28.5067 37.9253 28.208C38.3093 27.8987 38.6986 27.648 39.0933 27.456C39.4879 27.2533 39.8453 27.152 40.1653 27.152C40.2826 27.152 40.3893 27.168 40.4852 27.2C40.6666 27.264 40.7893 27.3653 40.8533 27.504C40.9279 27.6427 40.9653 27.7867 40.9653 27.936C40.9653 28.0747 40.9439 28.208 40.9013 28.336C40.8586 28.464 40.8053 28.576 40.7413 28.672C40.5493 28.96 40.2719 29.216 39.9093 29.44C39.5573 29.664 39.1946 29.84 38.8213 29.968C38.4586 30.096 38.1599 30.1707 37.9253 30.192H37.8932C37.7546 30.192 37.6853 30.1493 37.6853 30.064C37.6853 30.0107 37.7279 29.984 37.8133 29.984C38.0693 29.9627 38.3893 29.8453 38.7733 29.632C39.1679 29.408 39.5146 29.1787 39.8133 28.944C39.9413 28.8373 40.0906 28.688 40.2613 28.496C40.4426 28.304 40.5333 28.1173 40.5333 27.936C40.5333 27.744 40.4426 27.648 40.2613 27.648C40.1653 27.648 40.0639 27.6693 39.9573 27.712C39.8613 27.7547 39.7813 27.7867 39.7173 27.808C39.4079 27.9573 39.0666 28.192 38.6933 28.512C38.3199 28.8213 37.9786 29.1733 37.6693 29.568C37.3706 29.952 37.1626 30.3413 37.0453 30.736C37.0133 30.8213 36.9919 30.9067 36.9813 30.992C36.9706 31.0667 36.9653 31.1413 36.9653 31.216C36.9653 31.472 37.0453 31.6533 37.2053 31.76C37.3759 31.8667 37.5786 31.92 37.8133 31.92C38.1653 31.92 38.5279 31.8453 38.9013 31.696C39.2746 31.536 39.6373 31.3333 39.9893 31.088C40.3413 30.8427 40.6613 30.5813 40.9493 30.304C41.2479 30.016 41.4986 29.7387 41.7013 29.472C41.7333 29.4293 41.7706 29.408 41.8133 29.408C41.8559 29.3973 41.8826 29.4027 41.8933 29.424C41.9359 29.4347 41.9573 29.4667 41.9573 29.52C41.9573 29.5627 41.9466 29.6053 41.9253 29.648C41.6266 30.064 41.2639 30.4693 40.8373 30.864C40.4213 31.2587 39.9573 31.5893 39.4453 31.856C38.9439 32.112 38.4213 32.24 37.8773 32.24ZM42.1706 32.448C42.064 32.448 41.936 32.4373 41.7866 32.416C41.648 32.3947 41.5253 32.368 41.4186 32.336C41.312 32.304 41.2586 32.2773 41.2586 32.256C41.2586 32.2347 41.3066 32.2133 41.4026 32.192C41.5093 32.1813 41.6906 32.176 41.9466 32.176C42.2133 32.176 42.5013 32.112 42.8106 31.984C43.1306 31.8453 43.4346 31.6853 43.7226 31.504C44.0106 31.3227 44.256 31.1627 44.4586 31.024C44.7786 30.7893 45.1093 30.4907 45.4506 30.128C45.792 29.7547 46.032 29.3493 46.1706 28.912C46.192 28.8373 46.2186 28.736 46.2506 28.608C46.2826 28.48 46.2986 28.352 46.2986 28.224C46.2986 28.1067 46.2773 28.0107 46.2346 27.936C46.192 27.8507 46.112 27.808 45.9946 27.808C45.7813 27.808 45.5573 27.8667 45.3226 27.984C45.0986 28.1013 44.88 28.24 44.6666 28.4C44.464 28.5493 44.288 28.6933 44.1386 28.832C44.0106 28.928 43.856 29.072 43.6746 29.264C43.4933 29.456 43.312 29.6693 43.1306 29.904C42.96 30.1387 42.8213 30.3733 42.7146 30.608C42.608 30.832 42.5706 31.0347 42.6026 31.216C42.624 31.2587 42.608 31.344 42.5546 31.472C42.512 31.6 42.432 31.664 42.3146 31.664C42.2186 31.664 42.1066 31.5733 41.9786 31.392C41.904 31.3067 41.8666 31.1307 41.8666 30.864C41.8666 30.6187 41.8933 30.352 41.9466 30.064C42 29.776 42.048 29.5413 42.0906 29.36C41.984 29.488 41.888 29.6267 41.8026 29.776C41.728 29.9147 41.568 30.1227 41.3226 30.4C41.28 30.4427 41.232 30.464 41.1786 30.464C41.104 30.464 41.0666 30.4213 41.0666 30.336C41.0666 30.272 41.088 30.2187 41.1306 30.176C41.5146 29.6853 41.8346 29.2693 42.0906 28.928C42.3573 28.576 42.5226 28.3253 42.5866 28.176C42.672 27.952 42.784 27.664 42.9226 27.312C43.072 26.96 43.2373 26.5867 43.4186 26.192C43.6 25.7867 43.7866 25.3973 43.9786 25.024C44.1706 24.64 44.3573 24.3093 44.5386 24.032C44.6986 23.7867 44.8853 23.5413 45.0986 23.296C45.312 23.04 45.552 22.832 45.8186 22.672C46.0853 22.5013 46.3733 22.416 46.6826 22.416C46.8 22.416 46.928 22.432 47.0666 22.464C47.0773 22.464 47.104 22.4747 47.1466 22.496L47.3066 22.544C47.328 22.5547 47.344 22.56 47.3546 22.56C47.3653 22.56 47.376 22.5653 47.3866 22.576C47.6853 22.7573 47.8346 23.008 47.8346 23.328C47.8346 23.584 47.7493 23.872 47.5786 24.192C47.4293 24.4907 47.184 24.8373 46.8426 25.232C46.512 25.616 46.128 26.0107 45.6906 26.416C45.264 26.8107 44.8213 27.1947 44.3626 27.568C43.9146 27.9307 43.504 28.24 43.1306 28.496C43.024 28.6987 42.928 28.9333 42.8426 29.2C42.7573 29.4667 42.688 29.7333 42.6346 30C42.848 29.6907 43.088 29.392 43.3546 29.104C43.6213 28.8053 43.856 28.5707 44.0586 28.4C44.3893 28.1227 44.7093 27.904 45.0186 27.744C45.3386 27.5733 45.632 27.488 45.8986 27.488C46.0266 27.488 46.1813 27.5307 46.3626 27.616C46.5546 27.7013 46.7253 27.8133 46.8746 27.952C47.0346 28.08 47.1253 28.2187 47.1466 28.368C47.1466 28.4 47.1466 28.432 47.1466 28.464C47.1573 28.4853 47.1626 28.512 47.1626 28.544C47.1626 28.832 47.0826 29.1253 46.9226 29.424C46.7626 29.7227 46.56 30.0053 46.3146 30.272C46.08 30.5387 45.8293 30.7787 45.5626 30.992C45.3066 31.2053 45.0773 31.3813 44.8746 31.52C44.4693 31.7867 44.0373 32.0053 43.5786 32.176C43.1306 32.3573 42.6613 32.448 42.1706 32.448ZM43.3066 27.856C43.7973 27.536 44.288 27.1573 44.7786 26.72C45.2693 26.2827 45.7226 25.824 46.1386 25.344C46.5653 24.864 46.9066 24.416 47.1626 24C47.3226 23.744 47.4026 23.4933 47.4026 23.248C47.4026 23.1307 47.376 23.0347 47.3226 22.96C47.28 22.8747 47.2053 22.832 47.0986 22.832C47.024 22.832 46.9333 22.8533 46.8266 22.896C46.7306 22.9387 46.624 23.0133 46.5066 23.12C46.0586 23.4613 45.6426 23.888 45.2586 24.4C44.8746 24.912 44.5226 25.4667 44.2026 26.064C43.8826 26.6507 43.584 27.248 43.3066 27.856ZM49.576 29.28C49.384 29.28 49.288 29.2267 49.288 29.12C49.288 29.0347 49.3467 28.944 49.464 28.848C49.592 28.752 49.7093 28.704 49.816 28.704C49.9333 28.704 50.136 28.704 50.424 28.704C50.712 28.6933 51.0213 28.688 51.352 28.688C51.6827 28.6773 51.9547 28.672 52.168 28.672C52.4347 28.672 52.648 28.6987 52.808 28.752C52.9787 28.7947 53.064 28.8427 53.064 28.896C53.064 28.96 53 29.008 52.872 29.04C52.744 29.072 52.6107 29.0987 52.472 29.12C52.3333 29.1307 52.2373 29.1413 52.184 29.152C51.928 29.1627 51.624 29.1787 51.272 29.2C50.9307 29.2213 50.6 29.2427 50.28 29.264C49.9707 29.2747 49.736 29.28 49.576 29.28ZM57.9436 33.744C57.6663 33.7013 57.469 33.568 57.3516 33.344C57.2343 33.12 57.1756 32.8427 57.1756 32.512C57.1756 32.1173 57.229 31.6907 57.3356 31.232C57.453 30.7733 57.5863 30.3413 57.7356 29.936C57.885 29.5307 58.0023 29.2213 58.0876 29.008C57.8423 29.296 57.5596 29.6107 57.2396 29.952C56.9303 30.2933 56.605 30.6187 56.2636 30.928C55.9223 31.2373 55.5916 31.4933 55.2716 31.696C54.9623 31.888 54.6903 31.984 54.4556 31.984C54.285 31.984 54.1036 31.936 53.9116 31.84C53.7196 31.7333 53.565 31.6 53.4476 31.44C53.2876 31.2267 53.2076 31.008 53.2076 30.784C53.2076 30.496 53.3036 30.1973 53.4956 29.888C53.6983 29.5787 53.9543 29.28 54.2636 28.992C54.5836 28.6933 54.9196 28.4267 55.2716 28.192C55.6343 27.9467 55.9756 27.744 56.2956 27.584C56.6263 27.4133 56.893 27.3013 57.0956 27.248C57.2023 27.2267 57.3143 27.2053 57.4316 27.184C57.549 27.1627 57.6716 27.152 57.7996 27.152C57.9596 27.152 58.1196 27.1733 58.2796 27.216C58.4396 27.248 58.573 27.3067 58.6796 27.392L58.7436 27.44C58.9996 26.8533 59.2823 26.2613 59.5916 25.664C59.901 25.056 60.2316 24.5013 60.5836 24C60.9356 23.4987 61.309 23.0987 61.7036 22.8C62.0983 22.4907 62.509 22.336 62.9356 22.336C62.989 22.336 63.0423 22.3413 63.0956 22.352C63.149 22.352 63.197 22.3573 63.2396 22.368C63.5063 22.4213 63.693 22.5173 63.7996 22.656C63.917 22.784 63.9756 22.9387 63.9756 23.12C63.9756 23.248 63.949 23.3867 63.8956 23.536C63.853 23.6747 63.789 23.8133 63.7036 23.952C63.469 24.368 63.1596 24.7787 62.7756 25.184C62.4023 25.5893 61.9916 25.984 61.5436 26.368C61.0956 26.7413 60.6476 27.104 60.1996 27.456C59.7623 27.808 59.3623 28.1387 58.9996 28.448C58.8396 28.8213 58.6796 29.2587 58.5196 29.76C58.3596 30.2613 58.2263 30.688 58.1196 31.04C58.0556 31.296 58.0023 31.536 57.9596 31.76C57.9276 31.984 57.9116 32.192 57.9116 32.384C57.9116 32.736 57.9756 33.024 58.1036 33.248C58.2103 33.4187 58.3436 33.504 58.5036 33.504C58.621 33.504 58.7276 33.4613 58.8236 33.376C58.8663 33.3547 58.9036 33.328 58.9356 33.296C58.9783 33.264 59.0263 33.232 59.0796 33.2C59.1436 33.168 59.197 33.152 59.2396 33.152C59.3143 33.152 59.3196 33.2107 59.2556 33.328C59.2236 33.36 59.1863 33.3973 59.1436 33.44C59.101 33.4933 59.053 33.5467 58.9996 33.6C58.925 33.6533 58.813 33.696 58.6636 33.728C58.5143 33.76 58.365 33.776 58.2156 33.776C58.173 33.776 58.125 33.7707 58.0716 33.76C58.029 33.76 57.9863 33.7547 57.9436 33.744ZM59.4796 27.536C59.9063 27.248 60.3703 26.8907 60.8716 26.464C61.373 26.0267 61.8423 25.5627 62.2796 25.072C62.717 24.5707 63.053 24.096 63.2876 23.648C63.4263 23.392 63.4956 23.1893 63.4956 23.04C63.4956 22.8587 63.4156 22.768 63.2556 22.768C63.1063 22.768 62.909 22.8533 62.6636 23.024C61.949 23.5787 61.3463 24.24 60.8556 25.008C60.365 25.7653 59.9063 26.608 59.4796 27.536ZM54.0076 31.6C54.061 31.664 54.1303 31.696 54.2156 31.696C54.3756 31.696 54.5623 31.6267 54.7756 31.488C54.9996 31.3493 55.149 31.2427 55.2236 31.168C55.7676 30.7307 56.3116 30.2613 56.8556 29.76C57.4103 29.248 57.9276 28.736 58.4076 28.224C58.4503 28.128 58.4876 28.0373 58.5196 27.952C58.5516 27.856 58.589 27.7653 58.6316 27.68C58.4716 27.616 58.285 27.584 58.0716 27.584C57.645 27.584 57.1756 27.7227 56.6636 28C56.1516 28.2773 55.693 28.6027 55.2876 28.976C55.1596 29.0827 54.9836 29.2693 54.7596 29.536C54.5463 29.792 54.349 30.0747 54.1676 30.384C53.9863 30.6933 53.8956 30.976 53.8956 31.232C53.8956 31.3707 53.933 31.4933 54.0076 31.6ZM61.096 32.24C60.616 32.24 60.2 32.128 59.848 31.904C59.496 31.68 59.32 31.3387 59.32 30.88C59.32 30.6347 59.3947 30.336 59.544 29.984C59.6507 29.7387 59.848 29.456 60.136 29.136C60.424 28.816 60.76 28.5067 61.144 28.208C61.528 27.8987 61.9173 27.648 62.312 27.456C62.7067 27.2533 63.064 27.152 63.384 27.152C63.5013 27.152 63.608 27.168 63.704 27.2C63.8853 27.264 64.008 27.3653 64.072 27.504C64.1467 27.6427 64.184 27.7867 64.184 27.936C64.184 28.0747 64.1627 28.208 64.12 28.336C64.0773 28.464 64.024 28.576 63.96 28.672C63.768 28.96 63.4907 29.216 63.128 29.44C62.776 29.664 62.4133 29.84 62.04 29.968C61.6773 30.096 61.3787 30.1707 61.144 30.192H61.112C60.9733 30.192 60.904 30.1493 60.904 30.064C60.904 30.0107 60.9467 29.984 61.032 29.984C61.288 29.9627 61.608 29.8453 61.992 29.632C62.3867 29.408 62.7333 29.1787 63.032 28.944C63.16 28.8373 63.3093 28.688 63.48 28.496C63.6613 28.304 63.752 28.1173 63.752 27.936C63.752 27.744 63.6613 27.648 63.48 27.648C63.384 27.648 63.2827 27.6693 63.176 27.712C63.08 27.7547 63 27.7867 62.936 27.808C62.6267 27.9573 62.2853 28.192 61.912 28.512C61.5387 28.8213 61.1973 29.1733 60.888 29.568C60.5893 29.952 60.3813 30.3413 60.264 30.736C60.232 30.8213 60.2107 30.9067 60.2 30.992C60.1893 31.0667 60.184 31.1413 60.184 31.216C60.184 31.472 60.264 31.6533 60.424 31.76C60.5947 31.8667 60.7973 31.92 61.032 31.92C61.384 31.92 61.7467 31.8453 62.12 31.696C62.4933 31.536 62.856 31.3333 63.208 31.088C63.56 30.8427 63.88 30.5813 64.168 30.304C64.4667 30.016 64.7173 29.7387 64.92 29.472C64.952 29.4293 64.9893 29.408 65.032 29.408C65.0747 29.3973 65.1013 29.4027 65.112 29.424C65.1547 29.4347 65.176 29.4667 65.176 29.52C65.176 29.5627 65.1653 29.6053 65.144 29.648C64.8453 30.064 64.4827 30.4693 64.056 30.864C63.64 31.2587 63.176 31.5893 62.664 31.856C62.1627 32.112 61.64 32.24 61.096 32.24ZM65.2614 32.512C65.0587 32.512 64.92 32.4267 64.8454 32.256C64.7707 32.0853 64.7387 31.9147 64.7494 31.744C64.8027 31.4347 64.8774 31.12 64.9734 30.8C65.08 30.4693 65.1814 30.144 65.2774 29.824C65.2987 29.7493 65.3254 29.6533 65.3574 29.536C65.3894 29.4187 65.4214 29.2907 65.4534 29.152C65.3787 29.2587 65.2934 29.376 65.1974 29.504C65.112 29.632 65.0214 29.7653 64.9254 29.904C64.8827 29.9573 64.8347 29.984 64.7814 29.984C64.7387 29.984 64.7067 29.9627 64.6854 29.92C64.664 29.8667 64.6747 29.8133 64.7174 29.76C64.9627 29.4187 65.1547 29.12 65.2934 28.864C65.432 28.5973 65.528 28.384 65.5814 28.224C65.6027 28.0107 65.576 27.8347 65.5014 27.696C65.4374 27.5467 65.3147 27.472 65.1334 27.472C65.1014 27.472 65.0694 27.4773 65.0374 27.488C65.0054 27.488 64.968 27.4933 64.9254 27.504C64.9147 27.504 64.904 27.5093 64.8934 27.52C64.8934 27.52 64.888 27.52 64.8774 27.52C64.8454 27.52 64.8294 27.504 64.8294 27.472C64.8294 27.44 64.8614 27.3813 64.9254 27.296C64.968 27.264 65.048 27.2427 65.1654 27.232C65.2827 27.2107 65.3947 27.1947 65.5014 27.184C65.608 27.1733 65.672 27.168 65.6934 27.168C65.8427 27.168 65.9814 27.1787 66.1094 27.2C66.2374 27.2213 66.344 27.2853 66.4294 27.392C66.4827 27.4453 66.5254 27.5147 66.5574 27.6C66.5894 27.6853 66.5947 27.7707 66.5734 27.856C66.5734 27.92 66.5414 28.032 66.4774 28.192C66.424 28.3413 66.36 28.5067 66.2854 28.688C66.2214 28.8693 66.1574 29.0347 66.0934 29.184C66.04 29.3227 66.008 29.4187 65.9974 29.472C65.8907 29.7707 65.784 30.1013 65.6774 30.464C65.5707 30.8267 65.528 31.104 65.5494 31.296C66.0507 30.6347 66.5627 29.9733 67.0854 29.312C67.608 28.6507 68.1734 28.0373 68.7814 27.472C69.0267 27.2267 69.2774 27.0027 69.5334 26.8C69.7894 26.5867 70.0774 26.416 70.3974 26.288C70.536 26.2347 70.664 26.208 70.7814 26.208C70.952 26.208 71.1014 26.24 71.2294 26.304C71.3574 26.368 71.4427 26.4427 71.4854 26.528C71.528 26.56 71.5494 26.6187 71.5494 26.704C71.5494 26.832 71.5067 26.896 71.4214 26.896C71.4 26.896 71.3574 26.8747 71.2934 26.832C71.24 26.7787 71.16 26.752 71.0534 26.752C70.9467 26.752 70.8454 26.752 70.7494 26.752C70.5254 26.752 70.2427 26.864 69.9014 27.088C69.5707 27.312 69.208 27.6053 68.8134 27.968C68.4294 28.3307 68.0454 28.7253 67.6614 29.152C67.2774 29.5787 66.92 30.0053 66.5894 30.432C66.2694 30.8587 66.0027 31.2427 65.7894 31.584C65.5867 31.9253 65.4747 32.1867 65.4534 32.368C65.4534 32.4213 65.4267 32.4587 65.3734 32.48C65.32 32.5013 65.2827 32.512 65.2614 32.512ZM71.2366 32.24C70.7566 32.24 70.3406 32.128 69.9886 31.904C69.6366 31.68 69.4606 31.3387 69.4606 30.88C69.4606 30.6347 69.5353 30.336 69.6846 29.984C69.7913 29.7387 69.9886 29.456 70.2766 29.136C70.5646 28.816 70.9006 28.5067 71.2846 28.208C71.6686 27.8987 72.058 27.648 72.4526 27.456C72.8473 27.2533 73.2046 27.152 73.5246 27.152C73.642 27.152 73.7486 27.168 73.8446 27.2C74.026 27.264 74.1486 27.3653 74.2126 27.504C74.2873 27.6427 74.3246 27.7867 74.3246 27.936C74.3246 28.0747 74.3033 28.208 74.2606 28.336C74.218 28.464 74.1646 28.576 74.1006 28.672C73.9086 28.96 73.6313 29.216 73.2686 29.44C72.9166 29.664 72.554 29.84 72.1806 29.968C71.818 30.096 71.5193 30.1707 71.2846 30.192H71.2526C71.114 30.192 71.0446 30.1493 71.0446 30.064C71.0446 30.0107 71.0873 29.984 71.1726 29.984C71.4286 29.9627 71.7486 29.8453 72.1326 29.632C72.5273 29.408 72.874 29.1787 73.1726 28.944C73.3006 28.8373 73.45 28.688 73.6206 28.496C73.802 28.304 73.8926 28.1173 73.8926 27.936C73.8926 27.744 73.802 27.648 73.6206 27.648C73.5246 27.648 73.4233 27.6693 73.3166 27.712C73.2206 27.7547 73.1406 27.7867 73.0766 27.808C72.7673 27.9573 72.426 28.192 72.0526 28.512C71.6793 28.8213 71.338 29.1733 71.0286 29.568C70.73 29.952 70.522 30.3413 70.4046 30.736C70.3726 30.8213 70.3513 30.9067 70.3406 30.992C70.33 31.0667 70.3246 31.1413 70.3246 31.216C70.3246 31.472 70.4046 31.6533 70.5646 31.76C70.7353 31.8667 70.938 31.92 71.1726 31.92C71.5246 31.92 71.8873 31.8453 72.2606 31.696C72.634 31.536 72.9966 31.3333 73.3486 31.088C73.7006 30.8427 74.0206 30.5813 74.3086 30.304C74.6073 30.016 74.858 29.7387 75.0606 29.472C75.0926 29.4293 75.13 29.408 75.1726 29.408C75.2153 29.3973 75.242 29.4027 75.2526 29.424C75.2953 29.4347 75.3166 29.4667 75.3166 29.52C75.3166 29.5627 75.306 29.6053 75.2846 29.648C74.986 30.064 74.6233 30.4693 74.1966 30.864C73.7806 31.2587 73.3166 31.5893 72.8046 31.856C72.3033 32.112 71.7806 32.24 71.2366 32.24ZM75.914 32.16C75.466 32.16 75.1513 32.048 74.97 31.824C74.7993 31.6 74.714 31.3227 74.714 30.992C74.714 30.6827 74.7833 30.2933 74.922 29.824C75.0713 29.3547 75.2633 28.848 75.498 28.304C75.7327 27.76 75.9833 27.2213 76.25 26.688C76.5273 26.144 76.7993 25.648 77.066 25.2C77.3433 24.7413 77.5833 24.3733 77.786 24.096C77.9887 23.8293 78.2073 23.5627 78.442 23.296C78.6767 23.0293 78.938 22.8053 79.226 22.624C79.514 22.4427 79.8393 22.352 80.202 22.352C80.4473 22.352 80.6553 22.4213 80.826 22.56C81.0073 22.688 81.098 22.8853 81.098 23.152C81.098 23.2587 81.0767 23.3813 81.034 23.52C81.002 23.6587 80.9433 23.8027 80.858 23.952C80.2073 25.0827 79.4287 26.128 78.522 27.088C77.626 28.048 76.6767 28.9387 75.674 29.76C75.6313 29.92 75.5887 30.064 75.546 30.192C75.514 30.32 75.4873 30.4213 75.466 30.496C75.4553 30.5493 75.45 30.608 75.45 30.672C75.45 30.7253 75.45 30.7787 75.45 30.832C75.45 31.088 75.4927 31.312 75.578 31.504C75.6633 31.696 75.8073 31.792 76.01 31.792C76.202 31.792 76.4367 31.7013 76.714 31.52C77.002 31.328 77.29 31.0987 77.578 30.832C77.866 30.5547 78.1273 30.288 78.362 30.032C78.5967 29.776 78.762 29.5787 78.858 29.44C78.89 29.408 78.922 29.392 78.954 29.392C78.9967 29.392 79.0287 29.4133 79.05 29.456C79.082 29.4987 79.082 29.552 79.05 29.616C78.9433 29.7973 78.7727 30.0213 78.538 30.288C78.3033 30.5547 78.042 30.8267 77.754 31.104C77.466 31.3707 77.1887 31.6053 76.922 31.808C76.5913 32.0427 76.2553 32.16 75.914 32.16ZM75.898 29.12C76.3033 28.8427 76.7247 28.4853 77.162 28.048C77.5993 27.6 78.026 27.1147 78.442 26.592C78.8687 26.0693 79.2527 25.552 79.594 25.04C79.946 24.528 80.2287 24.064 80.442 23.648C80.506 23.5307 80.5487 23.4293 80.57 23.344C80.602 23.248 80.618 23.1627 80.618 23.088C80.618 22.8853 80.5327 22.784 80.362 22.784C80.2127 22.784 80.026 22.864 79.802 23.024C79.226 23.472 78.6927 24.048 78.202 24.752C77.7113 25.4453 77.274 26.176 76.89 26.944C76.506 27.712 76.1753 28.4373 75.898 29.12ZM79.888 32.176C79.5893 32.176 79.328 32.1067 79.104 31.968C78.7307 31.744 78.544 31.3387 78.544 30.752C78.544 30.5067 78.5867 30.224 78.672 29.904C78.7467 29.6373 78.88 29.3493 79.072 29.04C79.264 28.72 79.488 28.416 79.744 28.128C80.0107 27.84 80.2987 27.6053 80.608 27.424C80.9173 27.2427 81.2267 27.152 81.536 27.152C81.664 27.152 81.776 27.168 81.872 27.2C82 27.2427 82.1067 27.3227 82.192 27.44C82.288 27.5467 82.336 27.6853 82.336 27.856C82.336 28.0373 82.288 28.1387 82.192 28.16C82.1067 28.1813 82.064 28.16 82.064 28.096C82.064 28.0747 82.064 28.0533 82.064 28.032C82.0747 28.0107 82.08 27.9947 82.08 27.984C82.08 27.8987 82.0533 27.824 82 27.76C81.9573 27.6853 81.872 27.648 81.744 27.648C81.5733 27.648 81.36 27.7387 81.104 27.92C80.8587 28.1013 80.6027 28.3467 80.336 28.656C80.08 28.9547 79.8507 29.2853 79.648 29.648C79.456 30.0107 79.328 30.3733 79.264 30.736C79.2533 30.7893 79.2427 30.8427 79.232 30.896C79.232 30.9387 79.232 30.9867 79.232 31.04C79.232 31.2853 79.2853 31.4933 79.392 31.664C79.5093 31.824 79.6907 31.904 79.936 31.904C80.2347 31.904 80.5227 31.792 80.8 31.568C81.0773 31.3333 81.3227 31.056 81.536 30.736C81.76 30.416 81.9253 30.1333 82.032 29.888C82.1173 29.696 82.176 29.5307 82.208 29.392C82.24 29.2533 82.256 29.136 82.256 29.04C82.256 28.9547 82.2453 28.88 82.224 28.816C82.2133 28.752 82.1973 28.6987 82.176 28.656C82.1547 28.592 82.144 28.544 82.144 28.512C82.144 28.4267 82.176 28.3573 82.24 28.304C82.3147 28.2507 82.3893 28.224 82.464 28.224C82.528 28.224 82.5973 28.2453 82.672 28.288C82.7573 28.3093 82.8747 28.3253 83.024 28.336C83.1733 28.3467 83.3333 28.352 83.504 28.352C83.6853 28.352 83.8667 28.3467 84.048 28.336C84.24 28.3253 84.4053 28.304 84.544 28.272C84.5653 28.2613 84.5973 28.256 84.64 28.256C84.7147 28.256 84.752 28.2773 84.752 28.32C84.752 28.3627 84.7147 28.4 84.64 28.432C84.2667 28.6027 83.9307 28.6933 83.632 28.704C83.344 28.7147 83.0933 28.72 82.88 28.72C82.9013 28.9867 82.8427 29.2747 82.704 29.584C82.5653 29.8827 82.4213 30.1493 82.272 30.384C82.0907 30.6507 81.8827 30.9227 81.648 31.2C81.4133 31.4773 81.152 31.712 80.864 31.904C80.576 32.0853 80.2507 32.176 79.888 32.176ZM81.5614 37.472C81.4334 37.472 81.3694 37.4187 81.3694 37.312C81.3694 37.2693 81.3854 37.2107 81.4174 37.136C81.5454 36.8587 81.7267 36.4427 81.9614 35.888C82.196 35.344 82.4574 34.7147 82.7454 34C83.0227 33.296 83.3054 32.5707 83.5934 31.824C83.8494 31.1627 84.0947 30.5173 84.3294 29.888C84.5747 29.2587 84.7774 28.6933 84.9374 28.192C85.0974 27.68 85.1774 27.2853 85.1774 27.008C85.1774 26.9227 85.236 26.8747 85.3534 26.864C85.4707 26.8427 85.5827 26.832 85.6894 26.832C86.0414 26.832 86.2174 26.9493 86.2174 27.184C86.2174 27.376 86.1107 27.6267 85.8974 27.936C85.7054 28.2453 85.54 28.5653 85.4014 28.896C85.2627 29.216 85.124 29.5467 84.9854 29.888C85.2414 29.5467 85.4814 29.2107 85.7054 28.88C85.9294 28.5493 86.1907 28.2667 86.4894 28.032C86.724 27.8507 86.9534 27.7067 87.1774 27.6C87.412 27.4827 87.6627 27.424 87.9294 27.424C88.2067 27.424 88.484 27.4933 88.7614 27.632C89.0387 27.76 89.1987 27.968 89.2414 28.256C89.252 28.288 89.2574 28.3253 89.2574 28.368C89.2574 28.4 89.2574 28.432 89.2574 28.464C89.2574 28.8373 89.1454 29.2053 88.9214 29.568C88.708 29.92 88.452 30.2347 88.1534 30.512C87.8547 30.7893 87.5774 31.0133 87.3214 31.184C87.108 31.312 86.8467 31.4507 86.5374 31.6C86.2387 31.7493 85.9187 31.8773 85.5774 31.984C85.2467 32.0907 84.9267 32.144 84.6174 32.144C84.4254 32.144 84.2654 32.1227 84.1374 32.08C83.9987 32.4 83.8387 32.8107 83.6574 33.312C83.476 33.824 83.3054 34.3253 83.1454 34.816C83.0707 35.0293 83.044 35.2 83.0654 35.328C83.0867 35.4667 83.06 35.6373 82.9854 35.84C82.9214 36.0533 82.852 36.256 82.7774 36.448C82.7027 36.6507 82.6174 36.8427 82.5214 37.024C82.5 37.0667 82.436 37.1253 82.3294 37.2C82.212 37.2747 82.084 37.3387 81.9454 37.392C81.796 37.4453 81.668 37.472 81.5614 37.472ZM84.2654 31.824C84.6067 31.824 84.964 31.744 85.3374 31.584C85.7107 31.424 86.0787 31.2107 86.4414 30.944C86.804 30.6773 87.1294 30.3893 87.4174 30.08C87.716 29.76 87.956 29.4507 88.1374 29.152C88.3507 28.8107 88.4574 28.496 88.4574 28.208C88.4574 27.8773 88.3134 27.712 88.0254 27.712C87.9507 27.712 87.86 27.728 87.7534 27.76C87.6467 27.7813 87.524 27.8293 87.3854 27.904C86.82 28.2027 86.356 28.5547 85.9934 28.96C85.6307 29.3547 85.3214 29.792 85.0654 30.272C84.8094 30.752 84.5427 31.2693 84.2654 31.824ZM91.6116 32.24C91.1316 32.24 90.7156 32.128 90.3636 31.904C90.0116 31.68 89.8356 31.3387 89.8356 30.88C89.8356 30.6347 89.9103 30.336 90.0596 29.984C90.1663 29.7387 90.3636 29.456 90.6516 29.136C90.9396 28.816 91.2756 28.5067 91.6596 28.208C92.0436 27.8987 92.433 27.648 92.8276 27.456C93.2223 27.2533 93.5796 27.152 93.8996 27.152C94.017 27.152 94.1236 27.168 94.2196 27.2C94.401 27.264 94.5236 27.3653 94.5876 27.504C94.6623 27.6427 94.6996 27.7867 94.6996 27.936C94.6996 28.0747 94.6783 28.208 94.6356 28.336C94.593 28.464 94.5396 28.576 94.4756 28.672C94.2836 28.96 94.0063 29.216 93.6436 29.44C93.2916 29.664 92.929 29.84 92.5556 29.968C92.193 30.096 91.8943 30.1707 91.6596 30.192H91.6276C91.489 30.192 91.4196 30.1493 91.4196 30.064C91.4196 30.0107 91.4623 29.984 91.5476 29.984C91.8036 29.9627 92.1236 29.8453 92.5076 29.632C92.9023 29.408 93.249 29.1787 93.5476 28.944C93.6756 28.8373 93.825 28.688 93.9956 28.496C94.177 28.304 94.2676 28.1173 94.2676 27.936C94.2676 27.744 94.177 27.648 93.9956 27.648C93.8996 27.648 93.7983 27.6693 93.6916 27.712C93.5956 27.7547 93.5156 27.7867 93.4516 27.808C93.1423 27.9573 92.801 28.192 92.4276 28.512C92.0543 28.8213 91.713 29.1733 91.4036 29.568C91.105 29.952 90.897 30.3413 90.7796 30.736C90.7476 30.8213 90.7263 30.9067 90.7156 30.992C90.705 31.0667 90.6996 31.1413 90.6996 31.216C90.6996 31.472 90.7796 31.6533 90.9396 31.76C91.1103 31.8667 91.313 31.92 91.5476 31.92C91.8996 31.92 92.2623 31.8453 92.6356 31.696C93.009 31.536 93.3716 31.3333 93.7236 31.088C94.0756 30.8427 94.3956 30.5813 94.6836 30.304C94.9823 30.016 95.233 29.7387 95.4356 29.472C95.4676 29.4293 95.505 29.408 95.5476 29.408C95.5903 29.3973 95.617 29.4027 95.6276 29.424C95.6703 29.4347 95.6916 29.4667 95.6916 29.52C95.6916 29.5627 95.681 29.6053 95.6596 29.648C95.361 30.064 94.9983 30.4693 94.5716 30.864C94.1556 31.2587 93.6916 31.5893 93.1796 31.856C92.6783 32.112 92.1556 32.24 91.6116 32.24ZM97.377 32.192C97.1957 32.192 97.0357 32.1493 96.897 32.064C96.7583 31.9893 96.6623 31.84 96.609 31.616C96.577 31.4987 96.561 31.3813 96.561 31.264C96.561 30.944 96.641 30.6347 96.801 30.336C96.9717 30.0267 97.169 29.744 97.393 29.488C97.617 29.2213 97.809 28.9973 97.969 28.816C98.0543 28.7307 98.1503 28.6187 98.257 28.48C98.3743 28.3413 98.433 28.2027 98.433 28.064C98.433 27.9787 98.3903 27.8987 98.305 27.824C98.2197 27.7387 98.065 27.68 97.841 27.648C97.713 27.6267 97.5903 27.6107 97.473 27.6C97.3663 27.5787 97.2543 27.568 97.137 27.568C96.8383 27.9733 96.545 28.384 96.257 28.8C95.9797 29.2053 95.681 29.6053 95.361 30C95.2863 30.0747 95.2223 30.112 95.169 30.112C95.105 30.112 95.073 30.08 95.073 30.016C95.073 29.952 95.105 29.888 95.169 29.824C95.745 29.12 96.241 28.368 96.657 27.568C96.6037 27.568 96.5237 27.568 96.417 27.568C96.3103 27.5573 96.225 27.5467 96.161 27.536C96.0863 27.5147 96.0277 27.4827 95.985 27.44C95.9423 27.3973 95.921 27.3547 95.921 27.312C95.921 27.248 95.9477 27.2107 96.001 27.2C96.1397 27.1573 96.289 27.0933 96.449 27.008C96.609 26.9227 96.7583 26.8107 96.897 26.672C97.0463 26.5227 97.185 26.368 97.313 26.208C97.441 26.0373 97.5423 25.9093 97.617 25.824C97.6917 25.7707 97.7717 25.744 97.857 25.744C97.9103 25.744 97.9583 25.76 98.001 25.792C98.0543 25.824 98.081 25.872 98.081 25.936C98.081 26.0107 98.049 26.1067 97.985 26.224C97.889 26.3733 97.7823 26.5387 97.665 26.72C97.5583 26.9013 97.457 27.0667 97.361 27.216C97.553 27.2267 97.745 27.2373 97.937 27.248C98.129 27.2587 98.3263 27.264 98.529 27.264C98.6357 27.264 98.737 27.264 98.833 27.264C98.9397 27.2533 99.0463 27.248 99.153 27.248C99.473 27.248 99.633 27.328 99.633 27.488C99.633 27.5947 99.5743 27.728 99.457 27.888C99.3503 28.0373 99.217 28.2027 99.057 28.384C98.6943 28.8 98.385 29.2373 98.129 29.696C97.873 30.1547 97.7023 30.5067 97.617 30.752C97.5317 31.008 97.489 31.2 97.489 31.328C97.489 31.584 97.5903 31.712 97.793 31.712C97.9743 31.712 98.193 31.6213 98.449 31.44C98.7157 31.2587 98.9877 31.04 99.265 30.784C99.5423 30.5173 99.793 30.2613 100.017 30.016C100.241 29.76 100.401 29.568 100.497 29.44C100.518 29.408 100.55 29.392 100.593 29.392C100.636 29.392 100.673 29.4133 100.705 29.456C100.737 29.488 100.737 29.5307 100.705 29.584C100.588 29.7653 100.417 29.9947 100.193 30.272C99.969 30.5387 99.7183 30.8053 99.441 31.072C99.1637 31.3387 98.8917 31.568 98.625 31.76C98.4863 31.8667 98.2943 31.9627 98.049 32.048C97.8143 32.144 97.5903 32.192 97.377 32.192Z" fill="#194444"/>
<path d="M3.408 20.992C2.88 20.992 2.376 20.904 1.896 20.728C1.416 20.552 1.024 20.272 0.72 19.888C0.416 19.504 0.264 19.016 0.264 18.424C0.264 18.28 0.296 18.152 0.36 18.04C0.44 17.912 0.512 17.848 0.576 17.848C0.704 17.848 0.768 18.04 0.768 18.424C0.768 18.968 1 19.392 1.464 19.696C1.832 19.936 2.328 20.056 2.952 20.056C3.576 20.056 4.224 19.944 4.896 19.72C5.568 19.496 6.208 19.176 6.816 18.76C7.536 18.28 8.336 17.592 9.216 16.696C10.112 15.784 11.04 14.792 12 13.72C11.232 13.64 10.464 13.552 9.696 13.456C8.944 13.36 8.184 13.312 7.416 13.312C6.904 13.312 6.392 13.368 5.88 13.48C5.368 13.576 4.904 13.768 4.488 14.056C4.072 14.344 3.76 14.768 3.552 15.328C3.536 15.392 3.512 15.464 3.48 15.544C3.464 15.624 3.456 15.704 3.456 15.784C3.456 15.944 3.496 16.088 3.576 16.216C3.608 16.312 3.624 16.368 3.624 16.384C3.624 16.528 3.56 16.6 3.432 16.6C3.32 16.6 3.232 16.544 3.168 16.432C3.008 16.144 2.928 15.776 2.928 15.328C2.928 14.48 3.08 13.832 3.384 13.384C3.704 12.936 4.128 12.632 4.656 12.472C5.184 12.312 5.752 12.232 6.36 12.232C6.632 12.232 6.912 12.248 7.2 12.28C7.504 12.296 7.8 12.32 8.088 12.352C8.792 12.416 9.52 12.528 10.272 12.688C11.024 12.832 11.776 12.984 12.528 13.144C13.36 12.168 14.176 11.184 14.976 10.192C15.792 9.2 16.552 8.264 17.256 7.384C17.96 6.488 18.56 5.72 19.056 5.08C19.072 5.032 19.104 5 19.152 4.984C19.184 4.952 19.208 4.936 19.224 4.936C19.4 4.84 19.624 4.76 19.896 4.696C20.168 4.616 20.352 4.576 20.448 4.576C20.608 4.576 20.688 4.664 20.688 4.84C20.688 4.888 20.648 4.976 20.568 5.104C19.768 6.464 19.08 7.856 18.504 9.28C17.944 10.704 17.448 12.168 17.016 13.672L16.968 13.84C17.064 13.84 17.16 13.848 17.256 13.864C17.368 13.864 17.464 13.864 17.544 13.864C18.232 13.912 18.816 13.84 19.296 13.648C19.648 13.52 19.888 13.336 20.016 13.096C20.064 13.032 20.104 13 20.136 13C20.216 13 20.272 13.048 20.304 13.144C20.336 13.224 20.328 13.304 20.28 13.384C20.104 13.688 19.792 13.912 19.344 14.056C19.088 14.168 18.792 14.24 18.456 14.272C18.136 14.304 17.8 14.312 17.448 14.296H17.304L17.016 14.272H16.872C16.632 15.152 16.464 16.064 16.368 17.008C16.352 17.088 16.344 17.168 16.344 17.248C16.344 17.312 16.344 17.384 16.344 17.464C16.344 18.376 16.592 18.832 17.088 18.832C17.408 18.832 17.784 18.688 18.216 18.4C18.664 18.112 19.112 17.76 19.56 17.344C20.024 16.928 20.44 16.52 20.808 16.12C21.176 15.704 21.448 15.376 21.624 15.136C21.656 15.104 21.704 15.088 21.768 15.088C21.928 15.088 21.976 15.176 21.912 15.352C21.88 15.4 21.744 15.592 21.504 15.928C21.264 16.248 20.936 16.64 20.52 17.104C20.104 17.552 19.616 18 19.056 18.448C18.608 18.8 18.16 19.024 17.712 19.12C17.28 19.232 16.952 19.288 16.728 19.288C16.28 19.288 15.92 19.088 15.648 18.688C15.392 18.272 15.264 17.744 15.264 17.104C15.264 16.64 15.312 16.16 15.408 15.664C15.504 15.168 15.616 14.672 15.744 14.176C15.28 14.128 14.808 14.08 14.328 14.032C13.848 13.968 13.368 13.904 12.888 13.84C11.928 15.008 10.968 16.104 10.008 17.128C9.064 18.136 8.176 18.952 7.344 19.576C6.72 20.024 6.072 20.368 5.4 20.608C4.744 20.864 4.08 20.992 3.408 20.992ZM15.84 13.72C16.128 12.6 16.464 11.48 16.848 10.36C17.248 9.224 17.64 8.192 18.024 7.264L18.144 6.976C17.456 7.936 16.696 8.96 15.864 10.048C15.048 11.136 14.216 12.216 13.368 13.288C13.784 13.368 14.2 13.448 14.616 13.528C15.032 13.592 15.44 13.656 15.84 13.72ZM22.8163 19.24C22.1443 19.24 21.6723 19.072 21.4003 18.736C21.1443 18.4 21.0163 17.984 21.0163 17.488C21.0163 17.024 21.1203 16.44 21.3283 15.736C21.5523 15.032 21.8403 14.272 22.1923 13.456C22.5443 12.64 22.9203 11.832 23.3203 11.032C23.7363 10.216 24.1443 9.472 24.5443 8.8C24.9603 8.112 25.3203 7.56 25.6243 7.144C25.9283 6.744 26.2563 6.344 26.6083 5.944C26.9603 5.544 27.3523 5.208 27.7843 4.936C28.2163 4.664 28.7043 4.528 29.2483 4.528C29.6163 4.528 29.9283 4.632 30.1843 4.84C30.4563 5.032 30.5923 5.328 30.5923 5.728C30.5923 5.888 30.5603 6.072 30.4963 6.28C30.4483 6.488 30.3603 6.704 30.2323 6.928C29.2563 8.624 28.0883 10.192 26.7283 11.632C25.3843 13.072 23.9603 14.408 22.4563 15.64C22.3923 15.88 22.3283 16.096 22.2643 16.288C22.2163 16.48 22.1763 16.632 22.1443 16.744C22.1283 16.824 22.1203 16.912 22.1203 17.008C22.1203 17.088 22.1203 17.168 22.1203 17.248C22.1203 17.632 22.1843 17.968 22.3123 18.256C22.4403 18.544 22.6563 18.688 22.9603 18.688C23.2483 18.688 23.6003 18.552 24.0163 18.28C24.4483 17.992 24.8803 17.648 25.3123 17.248C25.7443 16.832 26.1363 16.432 26.4883 16.048C26.8403 15.664 27.0883 15.368 27.2323 15.16C27.2803 15.112 27.3283 15.088 27.3763 15.088C27.4403 15.088 27.4883 15.12 27.5203 15.184C27.5683 15.248 27.5683 15.328 27.5203 15.424C27.3603 15.696 27.1043 16.032 26.7523 16.432C26.4003 16.832 26.0083 17.24 25.5763 17.656C25.1443 18.056 24.7283 18.408 24.3283 18.712C23.8323 19.064 23.3283 19.24 22.8163 19.24ZM22.7923 14.68C23.4003 14.264 24.0323 13.728 24.6883 13.072C25.3443 12.4 25.9843 11.672 26.6083 10.888C27.2483 10.104 27.8243 9.328 28.3363 8.56C28.8643 7.792 29.2883 7.096 29.6083 6.472C29.7043 6.296 29.7683 6.144 29.8003 6.016C29.8483 5.872 29.8723 5.744 29.8723 5.632C29.8723 5.328 29.7443 5.176 29.4883 5.176C29.2643 5.176 28.9843 5.296 28.6483 5.536C27.7843 6.208 26.9843 7.072 26.2483 8.128C25.5123 9.168 24.8563 10.264 24.2803 11.416C23.7043 12.568 23.2083 13.656 22.7923 14.68ZM30.6973 10.648C30.4893 10.648 30.2733 10.632 30.0493 10.6C29.8253 10.552 29.7133 10.4 29.7133 10.144C29.7133 10.096 29.8173 9.984 30.0253 9.808C30.2493 9.632 30.4733 9.456 30.6973 9.28C30.9373 9.088 31.0813 8.976 31.1293 8.944C31.4013 8.72 31.5693 8.608 31.6333 8.608C31.7133 8.608 31.7133 8.712 31.6333 8.92C31.5533 9.128 31.5133 9.312 31.5133 9.472C31.5133 9.552 31.4653 9.688 31.3693 9.88C31.2733 10.072 31.1613 10.248 31.0333 10.408C30.9053 10.568 30.7933 10.648 30.6973 10.648ZM28.0813 19.24C27.7933 19.24 27.5293 19.176 27.2893 19.048C27.0653 18.92 26.8973 18.68 26.7853 18.328C26.7693 18.28 26.7533 18.232 26.7373 18.184C26.7373 18.136 26.7373 18.08 26.7373 18.016C26.7373 17.696 26.8093 17.296 26.9533 16.816C27.0973 16.336 27.2733 15.872 27.4813 15.424C27.3853 15.552 27.2733 15.712 27.1453 15.904C27.0173 16.08 26.8333 16.312 26.5933 16.6C26.5293 16.664 26.4573 16.696 26.3773 16.696C26.2653 16.696 26.2093 16.632 26.2093 16.504C26.2093 16.408 26.2413 16.328 26.3053 16.264C26.7213 15.736 27.0893 15.264 27.4093 14.848C27.7453 14.432 27.9933 14.08 28.1533 13.792C28.1533 13.776 28.1453 13.768 28.1293 13.768C28.1293 13.752 28.1293 13.736 28.1293 13.72C28.1293 13.672 28.1533 13.6 28.2013 13.504C28.3293 13.12 28.4573 12.8 28.5853 12.544C28.7293 12.272 28.8813 12.12 29.0413 12.088C29.0733 12.088 29.1053 12.088 29.1373 12.088C29.1693 12.072 29.2013 12.064 29.2333 12.064C29.4093 12.064 29.5693 12.104 29.7133 12.184C29.8573 12.264 29.9293 12.384 29.9293 12.544C29.9293 12.688 29.8733 12.864 29.7613 13.072C29.6653 13.28 29.5373 13.536 29.3773 13.84C29.0253 14.576 28.7053 15.248 28.4173 15.856C28.1453 16.448 27.9933 16.936 27.9613 17.32C27.9453 17.384 27.9373 17.448 27.9373 17.512C27.9373 17.56 27.9373 17.616 27.9373 17.68C27.9373 18.32 28.1453 18.64 28.5613 18.64C28.8173 18.64 29.1453 18.504 29.5453 18.232C29.9453 17.944 30.3533 17.6 30.7693 17.2C31.1853 16.784 31.5613 16.392 31.8973 16.024C32.2493 15.64 32.4893 15.352 32.6173 15.16C32.6653 15.112 32.7133 15.088 32.7613 15.088C32.8253 15.088 32.8733 15.112 32.9053 15.16C32.9533 15.208 32.9613 15.272 32.9293 15.352C32.7853 15.624 32.5373 15.968 32.1853 16.384C31.8493 16.784 31.4653 17.192 31.0333 17.608C30.6173 18.008 30.2093 18.352 29.8093 18.64C29.6013 18.8 29.3373 18.936 29.0173 19.048C28.7133 19.176 28.4013 19.24 28.0813 19.24ZM32.5834 20.2C32.4074 20.2 32.2314 20.176 32.0554 20.128C31.8794 20.08 31.7514 19.984 31.6714 19.84C31.6074 19.712 31.6154 19.552 31.6954 19.36C31.7754 19.184 31.8874 19.024 32.0314 18.88C32.1594 18.752 32.3194 18.624 32.5114 18.496C32.7194 18.368 32.9354 18.264 33.1594 18.184H33.2074C33.2874 18.184 33.3274 18.216 33.3274 18.28C33.3274 18.328 33.2954 18.376 33.2314 18.424C32.9434 18.568 32.7194 18.744 32.5594 18.952C32.4474 19.08 32.3914 19.216 32.3914 19.36C32.3914 19.616 32.5434 19.744 32.8474 19.744C33.1834 19.744 33.5434 19.64 33.9274 19.432C34.3274 19.24 34.7034 18.984 35.0554 18.664C35.4234 18.328 35.7194 17.976 35.9434 17.608C36.1674 17.24 36.2794 16.888 36.2794 16.552C36.2794 16.328 36.1594 16.128 35.9194 15.952C35.6794 15.76 35.4154 15.592 35.1274 15.448C34.8394 15.288 34.6234 15.16 34.4794 15.064C34.3034 14.936 34.1434 14.808 33.9994 14.68C33.8554 14.536 33.7434 14.384 33.6634 14.224C33.5354 14.448 33.3674 14.72 33.1594 15.04C32.9674 15.344 32.7354 15.664 32.4634 16C32.3674 16.096 32.2714 16.144 32.1754 16.144C32.0794 16.144 32.0314 16.104 32.0314 16.024C32.0314 15.976 32.0714 15.896 32.1514 15.784C32.5834 15.272 32.9034 14.8 33.1114 14.368C33.3194 13.936 33.4634 13.608 33.5434 13.384C33.6074 12.92 33.8234 12.48 34.1914 12.064C34.5594 11.648 35.0074 11.288 35.5354 10.984C36.0634 10.664 36.5994 10.416 37.1434 10.24C37.7034 10.064 38.1994 9.976 38.6314 9.976C39.0634 9.976 39.4474 10.056 39.7834 10.216C40.1194 10.376 40.2874 10.632 40.2874 10.984C40.2874 11.176 40.2314 11.384 40.1194 11.608C39.9754 11.912 39.7354 12.184 39.3994 12.424C39.3834 12.44 39.3594 12.448 39.3274 12.448C39.1994 12.448 39.1354 12.392 39.1354 12.28C39.1354 12.2 39.1754 12.12 39.2554 12.04C39.3834 11.928 39.4874 11.792 39.5674 11.632C39.6474 11.472 39.6874 11.32 39.6874 11.176C39.6874 10.888 39.5194 10.744 39.1834 10.744C38.9434 10.744 38.6634 10.792 38.3434 10.888C38.0234 10.968 37.7114 11.072 37.4074 11.2C37.1194 11.312 36.8794 11.416 36.6874 11.512C36.2874 11.704 35.9194 11.944 35.5834 12.232C35.2474 12.504 34.9274 12.848 34.6234 13.264C34.4154 13.536 34.3114 13.792 34.3114 14.032C34.3114 14.32 34.5034 14.584 34.8874 14.824C35.2874 15.048 35.6794 15.264 36.0634 15.472C36.4634 15.68 36.7994 15.904 37.0714 16.144C37.3434 16.384 37.4794 16.672 37.4794 17.008C37.4794 17.376 37.2474 17.816 36.7834 18.328C36.4954 18.648 36.1034 18.952 35.6074 19.24C35.1274 19.528 34.6154 19.76 34.0714 19.936C33.5274 20.112 33.0314 20.2 32.5834 20.2ZM46.1169 19.24C45.8449 19.24 45.5889 19.176 45.3489 19.048C45.1249 18.92 44.9569 18.68 44.8449 18.328C44.7969 18.184 44.7729 17.984 44.7729 17.728C44.7729 17.376 44.8209 16.984 44.9169 16.552C45.0129 16.12 45.1169 15.752 45.2289 15.448C45.1489 15.48 44.9969 15.624 44.7729 15.88C44.5649 16.12 44.3009 16.416 43.9809 16.768C43.6769 17.104 43.3329 17.448 42.9489 17.8C42.5809 18.136 42.1969 18.416 41.7969 18.64C41.3969 18.864 41.0049 18.976 40.6209 18.976C40.3649 18.976 40.0929 18.904 39.8049 18.76C39.5169 18.6 39.2849 18.4 39.1089 18.16C38.8689 17.84 38.7489 17.512 38.7489 17.176C38.7489 16.744 38.8929 16.296 39.1809 15.832C39.4849 15.368 39.8689 14.92 40.3329 14.488C40.8129 14.04 41.3169 13.64 41.8449 13.288C42.3889 12.92 42.9009 12.616 43.3809 12.376C43.8769 12.12 44.2769 11.952 44.5809 11.872C44.9009 11.776 45.2609 11.728 45.6609 11.728C45.8849 11.728 46.1169 11.76 46.3569 11.824C46.5969 11.872 46.7969 11.96 46.9569 12.088C47.0849 12.152 47.1889 12.24 47.2689 12.352C47.3489 12.464 47.3889 12.584 47.3889 12.712C47.3889 12.84 47.3329 12.88 47.2209 12.832C47.0929 12.64 46.9169 12.52 46.6929 12.472C46.4849 12.408 46.2689 12.376 46.0449 12.376C45.4049 12.376 44.7009 12.584 43.9329 13C43.1649 13.416 42.4769 13.904 41.8689 14.464C41.6769 14.624 41.4129 14.904 41.0769 15.304C40.7569 15.688 40.4609 16.112 40.1889 16.576C39.9169 17.04 39.7809 17.464 39.7809 17.848C39.7809 18.056 39.8369 18.24 39.9489 18.4C40.0129 18.512 40.1169 18.568 40.2609 18.568C40.4849 18.568 40.7809 18.448 41.1489 18.208C41.5329 17.968 41.9249 17.68 42.3249 17.344C42.7249 16.992 43.0849 16.656 43.4049 16.336C43.7409 16.016 43.9809 15.784 44.1249 15.64C44.2049 15.56 44.3569 15.4 44.5809 15.16C44.8209 14.904 45.0769 14.632 45.3489 14.344C45.6209 14.056 45.8609 13.808 46.0689 13.6C46.2929 13.392 46.4369 13.288 46.5009 13.288C46.5809 13.288 46.7089 13.312 46.8849 13.36C47.0769 13.392 47.2369 13.448 47.3649 13.528C47.4929 13.608 47.5169 13.712 47.4369 13.84C47.0209 14.448 46.6849 15.088 46.4289 15.76C46.1889 16.416 46.0449 16.936 45.9969 17.32C45.9809 17.384 45.9729 17.448 45.9729 17.512C45.9729 17.56 45.9729 17.616 45.9729 17.68C45.9729 18.32 46.1969 18.64 46.6449 18.64C46.8849 18.64 47.2049 18.496 47.6049 18.208C48.0049 17.92 48.4129 17.576 48.8289 17.176C49.2449 16.776 49.6209 16.392 49.9569 16.024C50.3089 15.64 50.5489 15.352 50.6769 15.16C50.7249 15.112 50.7729 15.088 50.8209 15.088C50.8849 15.088 50.9409 15.12 50.9889 15.184C51.0369 15.232 51.0369 15.296 50.9889 15.376C50.8129 15.664 50.5569 16.008 50.2209 16.408C49.8849 16.808 49.5089 17.208 49.0929 17.608C48.6769 18.008 48.2689 18.352 47.8689 18.64C47.6609 18.8 47.3969 18.936 47.0769 19.048C46.7569 19.176 46.4369 19.24 46.1169 19.24ZM69.1299 23.776C69.0019 23.792 68.8739 23.8 68.7459 23.8C68.6179 23.816 68.4899 23.824 68.3619 23.824C67.4659 23.824 66.5939 23.68 65.7459 23.392C64.8979 23.12 64.0819 22.76 63.2979 22.312C62.5139 21.88 61.7459 21.424 60.9939 20.944C60.2579 20.464 59.5459 20.008 58.8579 19.576C58.1699 19.16 57.4979 18.84 56.8419 18.616C56.5539 18.76 56.2579 18.864 55.9539 18.928C55.6659 18.992 55.4739 19.008 55.3779 18.976C55.0259 18.848 54.8499 18.608 54.8499 18.256C54.8499 17.952 55.0179 17.72 55.3539 17.56C55.4499 17.528 55.6339 17.552 55.9059 17.632C56.1939 17.696 56.5059 17.744 56.8419 17.776C57.5299 17.504 58.3299 16.944 59.2419 16.096C60.1699 15.248 61.1299 14.296 62.1219 13.24C61.6739 13.256 61.2659 13.272 60.8979 13.288C60.5299 13.304 60.2579 13.304 60.0819 13.288C59.9699 13.288 59.8419 13.224 59.6979 13.096C59.5539 12.968 59.4819 12.808 59.4819 12.616C59.4819 12.472 59.5619 12.344 59.7219 12.232C59.8979 12.12 60.0819 12.04 60.2739 11.992C60.4819 11.928 60.6419 11.896 60.7539 11.896C60.9619 11.896 61.1059 11.976 61.1859 12.136C61.2659 12.28 61.3619 12.36 61.4739 12.376C61.5539 12.392 61.6339 12.4 61.7139 12.4C61.7939 12.4 61.8739 12.4 61.9539 12.4C62.1139 12.4 62.2739 12.4 62.4339 12.4C62.5939 12.384 62.7539 12.376 62.9139 12.376C63.6499 11.576 64.3779 10.8 65.0979 10.048C65.8179 9.28 66.4979 8.608 67.1379 8.032C67.7779 7.44 68.3379 7.016 68.8179 6.76C68.0179 6.504 67.0579 6.28 65.9379 6.088C64.8339 5.896 63.7539 5.8 62.6979 5.8C62.2659 5.8 61.8419 5.824 61.4259 5.872C61.0259 5.904 60.6499 5.968 60.2979 6.064C59.7539 6.192 59.2819 6.44 58.8819 6.808C58.4979 7.16 58.3059 7.512 58.3059 7.864C58.3059 7.992 58.3299 8.104 58.3779 8.2C58.4419 8.312 58.4739 8.416 58.4739 8.512C58.4739 8.608 58.4419 8.656 58.3779 8.656C58.3139 8.656 58.2099 8.576 58.0659 8.416C57.8419 8.144 57.7299 7.84 57.7299 7.504C57.7299 7.168 57.8339 6.84 58.0419 6.52C58.2659 6.2 58.5379 5.92 58.8579 5.68C59.1939 5.424 59.5379 5.24 59.8899 5.128C60.3539 4.968 60.8419 4.856 61.3539 4.792C61.8659 4.728 62.3939 4.696 62.9379 4.696C64.0739 4.696 65.2339 4.808 66.4179 5.032C67.6019 5.256 68.6819 5.496 69.6579 5.752C69.7699 5.624 69.9459 5.48 70.1859 5.32C70.4419 5.144 70.7139 4.992 71.0019 4.864C71.2899 4.736 71.5459 4.672 71.7699 4.672C72.1059 4.672 72.2739 4.856 72.2739 5.224C72.2739 5.576 72.1459 5.888 71.8899 6.16C71.6499 6.432 71.3459 6.648 70.9779 6.808C70.6259 6.952 70.2899 7.024 69.9699 7.024C69.8259 7.024 69.7219 7.016 69.6579 7C69.1139 7.304 68.5459 7.736 67.9539 8.296C67.3619 8.856 66.7539 9.488 66.1299 10.192C65.5219 10.88 64.8979 11.584 64.2579 12.304C64.8179 12.24 65.3859 12.184 65.9619 12.136C66.5379 12.088 67.0979 12.08 67.6419 12.112C67.7699 12.128 67.8899 12.152 68.0019 12.184C68.1139 12.216 68.1699 12.264 68.1699 12.328C68.1699 12.36 68.1299 12.4 68.0499 12.448C67.9859 12.496 67.8499 12.552 67.6419 12.616C67.4499 12.664 67.1379 12.72 66.7059 12.784C66.2739 12.848 65.7779 12.912 65.2179 12.976C64.6579 13.024 64.0899 13.08 63.5139 13.144C62.7139 14.008 61.8739 14.856 60.9939 15.688C60.1139 16.504 59.1539 17.216 58.1139 17.824H58.0899C57.9619 17.936 57.8979 18.056 57.8979 18.184C57.8979 18.344 57.9859 18.48 58.1619 18.592C59.2019 19.136 60.2339 19.72 61.2579 20.344C62.2819 20.968 63.3219 21.496 64.3779 21.928C65.4499 22.36 66.5459 22.576 67.6659 22.576C67.7939 22.576 67.9219 22.568 68.0499 22.552C68.1939 22.552 68.3299 22.544 68.4579 22.528C68.7779 22.48 69.1059 22.384 69.4419 22.24C69.7939 22.096 70.0819 21.896 70.3059 21.64C70.5459 21.384 70.6659 21.072 70.6659 20.704C70.6659 20.352 70.5379 19.968 70.2819 19.552C70.2339 19.456 70.2099 19.384 70.2099 19.336C70.2099 19.24 70.2579 19.192 70.3539 19.192C70.4979 19.192 70.6019 19.272 70.6659 19.432C70.8739 19.784 71.0259 20.12 71.1219 20.44C71.2179 20.776 71.2899 21.08 71.3379 21.352C71.3379 21.4 71.3379 21.448 71.3379 21.496C71.3539 21.544 71.3619 21.592 71.3619 21.64C71.3619 22.152 71.1779 22.616 70.8099 23.032C70.4419 23.448 69.8819 23.696 69.1299 23.776ZM68.3004 19.312C68.1724 19.312 68.1404 19.256 68.2044 19.144C68.2364 19.048 68.3164 18.808 68.4444 18.424C68.5884 18.04 68.7564 17.576 68.9484 17.032C69.1404 16.488 69.3404 15.936 69.5484 15.376C69.7564 14.8 69.9484 14.288 70.1244 13.84C70.0124 13.984 69.8364 14.192 69.5964 14.464C69.3724 14.736 69.1324 15.024 68.8764 15.328C68.6204 15.632 68.3804 15.896 68.1564 16.12C68.1084 16.168 68.0764 16.192 68.0604 16.192C68.0124 16.192 67.9884 16.144 67.9884 16.048C67.9884 15.856 68.0364 15.68 68.1324 15.52C68.4844 15.072 68.8204 14.656 69.1404 14.272C69.4764 13.872 69.7804 13.496 70.0524 13.144C69.8924 13.048 69.8124 12.928 69.8124 12.784C69.8124 12.56 69.9244 12.448 70.1484 12.448C70.2444 12.448 70.3164 12.464 70.3644 12.496C70.3804 12.512 70.3964 12.52 70.4124 12.52C70.4284 12.52 70.4444 12.536 70.4604 12.568C70.5404 12.456 70.6044 12.352 70.6524 12.256C70.7164 12.16 70.7724 12.056 70.8204 11.944C70.8844 11.8 71.0124 11.528 71.2044 11.128C71.4124 10.712 71.6684 10.224 71.9724 9.664C72.2764 9.104 72.6204 8.528 73.0044 7.936C73.4044 7.328 73.8284 6.768 74.2764 6.256C74.7404 5.728 75.2124 5.304 75.6924 4.984C76.1884 4.664 76.6924 4.504 77.2044 4.504C77.2684 4.504 77.3324 4.512 77.3964 4.528C77.4604 4.528 77.5244 4.536 77.5884 4.552C77.9884 4.632 78.2684 4.776 78.4284 4.984C78.5884 5.176 78.6684 5.408 78.6684 5.68C78.6684 5.872 78.6284 6.08 78.5484 6.304C78.4844 6.512 78.3884 6.72 78.2604 6.928C77.9404 7.488 77.5164 8.056 76.9884 8.632C76.4604 9.192 75.8684 9.752 75.2124 10.312C74.5724 10.856 73.9244 11.392 73.2684 11.92C72.6284 12.432 72.0284 12.92 71.4684 13.384C71.0844 14.2 70.7884 14.928 70.5804 15.568C70.3724 16.192 70.2124 16.696 70.1004 17.08C70.2764 16.856 70.5404 16.536 70.8924 16.12C71.2444 15.704 71.6444 15.256 72.0924 14.776C72.5404 14.296 73.0044 13.84 73.4844 13.408C73.9644 12.96 74.4204 12.6 74.8524 12.328C75.2844 12.04 75.6524 11.896 75.9564 11.896C76.3404 11.896 76.5324 12.096 76.5324 12.496C76.5324 12.88 76.3964 13.304 76.1244 13.768C75.8524 14.232 75.6284 14.624 75.4524 14.944C75.2284 15.408 75.0444 15.856 74.9004 16.288C74.7724 16.704 74.6924 17.048 74.6604 17.32C74.6444 17.384 74.6364 17.448 74.6364 17.512C74.6364 17.56 74.6364 17.616 74.6364 17.68C74.6364 18.32 74.8604 18.64 75.3084 18.64C75.5484 18.64 75.8684 18.496 76.2684 18.208C76.6684 17.92 77.0764 17.576 77.4924 17.176C77.9084 16.776 78.2844 16.392 78.6204 16.024C78.9724 15.64 79.2124 15.352 79.3404 15.16C79.3884 15.112 79.4444 15.088 79.5084 15.088C79.5724 15.088 79.6204 15.112 79.6524 15.16C79.6844 15.208 79.6844 15.272 79.6524 15.352C79.4924 15.624 79.2444 15.968 78.9084 16.384C78.5724 16.784 78.1964 17.192 77.7804 17.608C77.3644 18.008 76.9564 18.352 76.5564 18.64C76.3484 18.8 76.0764 18.936 75.7404 19.048C75.4204 19.176 75.1004 19.24 74.7804 19.24C74.5244 19.24 74.2764 19.176 74.0364 19.048C73.7964 18.92 73.6204 18.68 73.5084 18.328C73.4604 18.184 73.4364 17.984 73.4364 17.728C73.4364 17.648 73.4364 17.568 73.4364 17.488C73.4364 17.392 73.4444 17.296 73.4604 17.2C73.5244 16.688 73.6924 16.152 73.9644 15.592C74.2524 15.016 74.5164 14.504 74.7564 14.056C74.8204 13.928 74.8684 13.816 74.9004 13.72C74.9484 13.624 74.9724 13.544 74.9724 13.48C74.9724 13.352 74.9164 13.288 74.8044 13.288C74.6924 13.288 74.5164 13.36 74.2764 13.504C74.0364 13.648 73.7164 13.896 73.3164 14.248C72.9644 14.552 72.5884 14.952 72.1884 15.448C71.8044 15.928 71.4204 16.424 71.0364 16.936C70.6684 17.448 70.3404 17.888 70.0524 18.256C69.7804 18.624 69.5884 18.84 69.4764 18.904C69.3964 18.952 69.2124 19.032 68.9244 19.144C68.6364 19.256 68.4284 19.312 68.3004 19.312ZM71.9244 12.304C72.5644 11.872 73.2604 11.336 74.0124 10.696C74.7644 10.04 75.4684 9.344 76.1244 8.608C76.7964 7.856 77.3084 7.144 77.6604 6.472C77.8524 6.104 77.9484 5.8 77.9484 5.56C77.9484 5.288 77.8284 5.152 77.5884 5.152C77.4764 5.152 77.3484 5.184 77.2044 5.248C77.0604 5.296 76.8924 5.392 76.7004 5.536C75.6284 6.368 74.7244 7.36 73.9884 8.512C73.2524 9.648 72.5644 10.912 71.9244 12.304ZM85.4383 19.24C85.1503 19.24 84.8943 19.176 84.6703 19.048C84.4463 18.92 84.2783 18.68 84.1663 18.328C84.1503 18.248 84.1263 18.16 84.0943 18.064C84.0783 17.952 84.0703 17.84 84.0703 17.728C84.0703 17.344 84.1183 16.912 84.2143 16.432C84.3263 15.952 84.4463 15.552 84.5743 15.232C84.5103 15.28 84.3983 15.44 84.2383 15.712C84.0783 15.984 83.8783 16.304 83.6383 16.672C83.3983 17.024 83.1263 17.384 82.8223 17.752C82.5343 18.104 82.2143 18.4 81.8623 18.64C81.5263 18.864 81.1663 18.976 80.7823 18.976C80.5263 18.976 80.2143 18.904 79.8463 18.76C79.4943 18.616 79.2383 18.416 79.0783 18.16C78.9183 17.904 78.8383 17.584 78.8383 17.2C78.8383 16.736 78.9423 16.232 79.1503 15.688C79.3583 15.128 79.6223 14.608 79.9423 14.128C80.0543 13.968 80.1823 13.776 80.3263 13.552C80.4703 13.328 80.6143 13.136 80.7583 12.976C80.9023 12.8 81.0063 12.704 81.0703 12.688C81.2623 12.624 81.4863 12.592 81.7423 12.592C82.0143 12.592 82.2143 12.624 82.3423 12.688C82.4543 12.736 82.5103 12.792 82.5103 12.856C82.5103 12.936 82.4463 13.04 82.3183 13.168C82.1423 13.328 81.9023 13.568 81.5983 13.888C81.2943 14.208 80.9903 14.592 80.6863 15.04C80.3983 15.488 80.1583 15.984 79.9663 16.528C79.8063 16.96 79.7263 17.336 79.7263 17.656C79.7263 18.216 79.9503 18.496 80.3983 18.496C80.7823 18.496 81.1903 18.336 81.6223 18.016C82.0543 17.696 82.4703 17.304 82.8703 16.84C83.2863 16.376 83.6543 15.92 83.9743 15.472C84.3103 15.008 84.5663 14.64 84.7423 14.368C84.9023 14.144 85.0783 13.856 85.2703 13.504C85.4783 13.152 85.6783 12.808 85.8703 12.472C86.0623 12.136 86.2143 11.888 86.3263 11.728C86.4383 11.728 86.6063 11.752 86.8303 11.8C87.0703 11.832 87.2703 11.896 87.4303 11.992C87.6063 12.088 87.6543 12.208 87.5743 12.352C87.4783 12.512 87.3263 12.76 87.1183 13.096C86.9263 13.432 86.7263 13.776 86.5183 14.128C86.3263 14.464 86.1743 14.736 86.0623 14.944C85.6783 15.68 85.4303 16.472 85.3183 17.32C85.3023 17.384 85.2943 17.448 85.2943 17.512C85.2943 17.56 85.2943 17.616 85.2943 17.68C85.2943 18.32 85.5103 18.64 85.9423 18.64C86.1823 18.64 86.5023 18.496 86.9023 18.208C87.3023 17.92 87.7103 17.576 88.1263 17.176C88.5583 16.776 88.9423 16.392 89.2783 16.024C89.6303 15.64 89.8703 15.352 89.9983 15.16C90.0303 15.112 90.0783 15.088 90.1423 15.088C90.2063 15.088 90.2543 15.112 90.2863 15.16C90.3343 15.208 90.3343 15.272 90.2863 15.352C90.1423 15.624 89.8943 15.968 89.5423 16.384C89.2063 16.784 88.8303 17.192 88.4143 17.608C87.9983 18.008 87.5903 18.352 87.1903 18.64C86.9823 18.8 86.7183 18.936 86.3983 19.048C86.0783 19.176 85.7583 19.24 85.4383 19.24ZM92.8624 19.288C92.5904 19.288 92.3504 19.224 92.1424 19.096C91.9344 18.984 91.7904 18.76 91.7104 18.424C91.6624 18.248 91.6384 18.072 91.6384 17.896C91.6384 17.416 91.7584 16.952 91.9984 16.504C92.2544 16.04 92.5504 15.616 92.8864 15.232C93.2224 14.832 93.5104 14.496 93.7504 14.224C93.8784 14.096 94.0224 13.928 94.1824 13.72C94.3584 13.512 94.4464 13.304 94.4464 13.096C94.4464 12.968 94.3824 12.848 94.2544 12.736C94.1264 12.608 93.8944 12.52 93.5584 12.472C93.3664 12.44 93.1824 12.416 93.0064 12.4C92.8464 12.368 92.6784 12.352 92.5024 12.352C92.0544 12.96 91.6144 13.576 91.1824 14.2C90.7664 14.808 90.3184 15.408 89.8384 16C89.7264 16.112 89.6304 16.168 89.5504 16.168C89.4544 16.168 89.4064 16.12 89.4064 16.024C89.4064 15.928 89.4544 15.832 89.5504 15.736C90.4144 14.68 91.1584 13.552 91.7824 12.352C91.7024 12.352 91.5824 12.352 91.4224 12.352C91.2624 12.336 91.1344 12.32 91.0384 12.304C90.9264 12.272 90.8384 12.224 90.7744 12.16C90.7104 12.096 90.6784 12.032 90.6784 11.968C90.6784 11.872 90.7184 11.816 90.7984 11.8C91.0064 11.736 91.2304 11.64 91.4704 11.512C91.7104 11.384 91.9344 11.216 92.1424 11.008C92.3664 10.784 92.5744 10.552 92.7664 10.312C92.9584 10.056 93.1104 9.864 93.2224 9.736C93.3344 9.656 93.4544 9.616 93.5824 9.616C93.6624 9.616 93.7344 9.64 93.7984 9.688C93.8784 9.736 93.9184 9.808 93.9184 9.904C93.9184 10.016 93.8704 10.16 93.7744 10.336C93.6304 10.56 93.4704 10.808 93.2944 11.08C93.1344 11.352 92.9824 11.6 92.8384 11.824C93.1264 11.84 93.4144 11.856 93.7024 11.872C93.9904 11.888 94.2864 11.896 94.5904 11.896C94.7504 11.896 94.9024 11.896 95.0464 11.896C95.2064 11.88 95.3664 11.872 95.5264 11.872C96.0064 11.872 96.2464 11.992 96.2464 12.232C96.2464 12.392 96.1584 12.592 95.9824 12.832C95.8224 13.056 95.6224 13.304 95.3824 13.576C94.8384 14.2 94.3744 14.856 93.9904 15.544C93.6064 16.232 93.3504 16.76 93.2224 17.128C93.0944 17.512 93.0304 17.8 93.0304 17.992C93.0304 18.376 93.1824 18.568 93.4864 18.568C93.7584 18.568 94.0864 18.432 94.4704 18.16C94.8704 17.888 95.2784 17.56 95.6944 17.176C96.1104 16.776 96.4864 16.392 96.8224 16.024C97.1584 15.64 97.3984 15.352 97.5424 15.16C97.5744 15.112 97.6224 15.088 97.6864 15.088C97.7504 15.088 97.8064 15.12 97.8544 15.184C97.9024 15.232 97.9024 15.296 97.8544 15.376C97.6784 15.648 97.4224 15.992 97.0864 16.408C96.7504 16.808 96.3744 17.208 95.9584 17.608C95.5424 18.008 95.1344 18.352 94.7344 18.64C94.5264 18.8 94.2384 18.944 93.8704 19.072C93.5184 19.216 93.1824 19.288 92.8624 19.288ZM99.1133 19.264C98.6653 19.264 98.2733 19.16 97.9373 18.952C97.3773 18.616 97.0973 18.008 97.0973 17.128C97.0973 16.76 97.1613 16.336 97.2893 15.856C97.4013 15.456 97.6013 15.024 97.8893 14.56C98.1773 14.08 98.5133 13.624 98.8973 13.192C99.2973 12.76 99.7293 12.408 100.193 12.136C100.657 11.864 101.121 11.728 101.585 11.728C101.777 11.728 101.945 11.752 102.089 11.8C102.281 11.864 102.441 11.984 102.569 12.16C102.713 12.32 102.785 12.528 102.785 12.784C102.785 13.056 102.713 13.208 102.569 13.24C102.441 13.272 102.377 13.24 102.377 13.144C102.377 13.112 102.377 13.08 102.377 13.048C102.393 13.016 102.401 12.992 102.401 12.976C102.401 12.848 102.361 12.736 102.281 12.64C102.217 12.528 102.089 12.472 101.897 12.472C101.641 12.472 101.321 12.608 100.937 12.88C100.569 13.152 100.185 13.52 99.7853 13.984C99.4013 14.432 99.0573 14.928 98.7533 15.472C98.4653 16.016 98.2733 16.56 98.1773 17.104C98.1613 17.184 98.1453 17.264 98.1293 17.344C98.1293 17.408 98.1293 17.48 98.1293 17.56C98.1293 17.928 98.2093 18.24 98.3693 18.496C98.5453 18.736 98.8173 18.856 99.1853 18.856C99.6333 18.856 100.065 18.688 100.481 18.352C100.897 18 101.265 17.584 101.585 17.104C101.921 16.624 102.169 16.2 102.329 15.832C102.457 15.544 102.545 15.296 102.593 15.088C102.641 14.88 102.665 14.704 102.665 14.56C102.665 14.432 102.649 14.32 102.617 14.224C102.601 14.128 102.577 14.048 102.545 13.984C102.513 13.888 102.497 13.816 102.497 13.768C102.497 13.64 102.545 13.536 102.641 13.456C102.753 13.376 102.865 13.336 102.977 13.336C103.073 13.336 103.177 13.368 103.289 13.432C103.417 13.464 103.593 13.488 103.817 13.504C104.041 13.52 104.281 13.528 104.537 13.528C104.809 13.528 105.081 13.52 105.353 13.504C105.641 13.488 105.889 13.456 106.097 13.408C106.129 13.392 106.177 13.384 106.241 13.384C106.353 13.384 106.409 13.416 106.409 13.48C106.409 13.544 106.353 13.6 106.241 13.648C105.681 13.904 105.177 14.04 104.729 14.056C104.297 14.072 103.921 14.08 103.601 14.08C103.633 14.48 103.545 14.912 103.337 15.376C103.129 15.824 102.913 16.224 102.689 16.576C102.417 16.976 102.105 17.384 101.753 17.8C101.401 18.216 101.009 18.568 100.577 18.856C100.145 19.128 99.6573 19.264 99.1133 19.264ZM106.423 19.768C106.119 19.768 105.911 19.64 105.799 19.384C105.687 19.128 105.639 18.872 105.655 18.616C105.735 18.152 105.847 17.68 105.991 17.2C106.151 16.704 106.303 16.216 106.447 15.736C106.479 15.624 106.519 15.48 106.567 15.304C106.615 15.128 106.663 14.936 106.711 14.728C106.599 14.888 106.471 15.064 106.327 15.256C106.199 15.448 106.063 15.648 105.919 15.856C105.855 15.936 105.783 15.976 105.703 15.976C105.639 15.976 105.591 15.944 105.559 15.88C105.527 15.8 105.543 15.72 105.607 15.64C105.975 15.128 106.263 14.68 106.471 14.296C106.679 13.896 106.823 13.576 106.903 13.336C106.935 13.016 106.895 12.752 106.783 12.544C106.687 12.32 106.503 12.208 106.231 12.208C106.183 12.208 106.135 12.216 106.087 12.232C106.039 12.232 105.983 12.24 105.919 12.256C105.903 12.256 105.887 12.264 105.871 12.28C105.871 12.28 105.863 12.28 105.847 12.28C105.799 12.28 105.775 12.256 105.775 12.208C105.775 12.16 105.823 12.072 105.919 11.944C105.983 11.896 106.103 11.864 106.279 11.848C106.455 11.816 106.623 11.792 106.783 11.776C106.943 11.76 107.039 11.752 107.071 11.752C107.295 11.752 107.503 11.768 107.695 11.8C107.887 11.832 108.047 11.928 108.175 12.088C108.255 12.168 108.319 12.272 108.367 12.4C108.415 12.528 108.423 12.656 108.391 12.784C108.391 12.88 108.343 13.048 108.247 13.288C108.167 13.512 108.071 13.76 107.959 14.032C107.863 14.304 107.767 14.552 107.671 14.776C107.591 14.984 107.543 15.128 107.527 15.208C107.367 15.656 107.207 16.152 107.047 16.696C106.887 17.24 106.823 17.656 106.855 17.944C107.607 16.952 108.375 15.96 109.159 14.968C109.943 13.976 110.791 13.056 111.703 12.208C112.071 11.84 112.447 11.504 112.831 11.2C113.215 10.88 113.647 10.624 114.127 10.432C114.335 10.352 114.527 10.312 114.703 10.312C114.959 10.312 115.183 10.36 115.375 10.456C115.567 10.552 115.695 10.664 115.759 10.792C115.823 10.84 115.855 10.928 115.855 11.056C115.855 11.248 115.791 11.344 115.663 11.344C115.631 11.344 115.567 11.312 115.471 11.248C115.391 11.168 115.271 11.128 115.111 11.128C114.951 11.128 114.799 11.128 114.655 11.128C114.319 11.128 113.895 11.296 113.383 11.632C112.887 11.968 112.343 12.408 111.751 12.952C111.175 13.496 110.599 14.088 110.023 14.728C109.447 15.368 108.911 16.008 108.415 16.648C107.935 17.288 107.535 17.864 107.215 18.376C106.911 18.888 106.743 19.28 106.711 19.552C106.711 19.632 106.671 19.688 106.591 19.72C106.511 19.752 106.455 19.768 106.423 19.768ZM119.898 19.24C119.626 19.24 119.37 19.176 119.13 19.048C118.906 18.92 118.738 18.68 118.626 18.328C118.578 18.184 118.554 17.984 118.554 17.728C118.554 17.376 118.602 16.984 118.698 16.552C118.794 16.12 118.898 15.752 119.01 15.448C118.93 15.48 118.778 15.624 118.554 15.88C118.346 16.12 118.082 16.416 117.762 16.768C117.458 17.104 117.114 17.448 116.73 17.8C116.362 18.136 115.978 18.416 115.578 18.64C115.178 18.864 114.786 18.976 114.402 18.976C114.146 18.976 113.874 18.904 113.586 18.76C113.298 18.6 113.066 18.4 112.89 18.16C112.65 17.84 112.53 17.512 112.53 17.176C112.53 16.744 112.674 16.296 112.962 15.832C113.266 15.368 113.65 14.92 114.114 14.488C114.594 14.04 115.098 13.64 115.626 13.288C116.17 12.92 116.682 12.616 117.162 12.376C117.658 12.12 118.058 11.952 118.362 11.872C118.682 11.776 119.042 11.728 119.442 11.728C119.666 11.728 119.898 11.76 120.138 11.824C120.378 11.872 120.578 11.96 120.738 12.088C120.866 12.152 120.97 12.24 121.05 12.352C121.13 12.464 121.17 12.584 121.17 12.712C121.17 12.84 121.114 12.88 121.002 12.832C120.874 12.64 120.698 12.52 120.474 12.472C120.266 12.408 120.05 12.376 119.826 12.376C119.186 12.376 118.482 12.584 117.714 13C116.946 13.416 116.258 13.904 115.65 14.464C115.458 14.624 115.194 14.904 114.858 15.304C114.538 15.688 114.242 16.112 113.97 16.576C113.698 17.04 113.562 17.464 113.562 17.848C113.562 18.056 113.618 18.24 113.73 18.4C113.794 18.512 113.898 18.568 114.042 18.568C114.266 18.568 114.562 18.448 114.93 18.208C115.314 17.968 115.706 17.68 116.106 17.344C116.506 16.992 116.866 16.656 117.186 16.336C117.522 16.016 117.762 15.784 117.906 15.64C117.986 15.56 118.138 15.4 118.362 15.16C118.602 14.904 118.858 14.632 119.13 14.344C119.402 14.056 119.642 13.808 119.85 13.6C120.074 13.392 120.218 13.288 120.282 13.288C120.362 13.288 120.49 13.312 120.666 13.36C120.858 13.392 121.018 13.448 121.146 13.528C121.274 13.608 121.298 13.712 121.218 13.84C120.802 14.448 120.466 15.088 120.21 15.76C119.97 16.416 119.826 16.936 119.778 17.32C119.762 17.384 119.754 17.448 119.754 17.512C119.754 17.56 119.754 17.616 119.754 17.68C119.754 18.32 119.978 18.64 120.426 18.64C120.666 18.64 120.986 18.496 121.386 18.208C121.786 17.92 122.194 17.576 122.61 17.176C123.026 16.776 123.402 16.392 123.738 16.024C124.09 15.64 124.33 15.352 124.458 15.16C124.506 15.112 124.554 15.088 124.602 15.088C124.666 15.088 124.722 15.12 124.77 15.184C124.818 15.232 124.818 15.296 124.77 15.376C124.594 15.664 124.338 16.008 124.002 16.408C123.666 16.808 123.29 17.208 122.874 17.608C122.458 18.008 122.05 18.352 121.65 18.64C121.442 18.8 121.178 18.936 120.858 19.048C120.538 19.176 120.218 19.24 119.898 19.24Z" fill="black"/>
</svg>
