<svg width="61" height="61" viewBox="0 0 61 61" fill="none" xmlns="http://www.w3.org/2000/svg">
<g clip-path="url(#clip0_31_28)">
<path d="M15.1888 27.7264C15.7193 23.7046 19.2744 20.0643 25.7774 16.892L26.9484 16.3207L22.1475 7.45703L21.0637 8.00638C7.31174 14.9774 0.338867 24.829 0.338867 37.2879C0.338867 41.5867 1.70345 45.2995 4.395 48.3233C7.12429 51.3893 10.4364 52.9439 14.2401 52.9439C17.6579 52.9439 20.556 51.7269 22.8539 49.3262C25.1368 46.941 26.2943 43.9784 26.2943 40.5204C26.2943 37.2529 25.1251 34.3409 22.8191 31.8653C20.7852 29.6817 18.2223 28.2927 15.1888 27.7264ZM21.0495 47.5991C19.2157 49.515 16.9883 50.4462 14.2401 50.4462C11.1371 50.4462 8.5271 49.2085 6.26093 46.6625C3.95665 44.0739 2.83648 41.0075 2.83648 37.2878C2.83648 31.5776 4.44443 26.4223 7.61537 21.9653C10.641 17.7129 15.179 13.9585 21.115 10.7943L23.5201 15.2346C16.2867 19.0252 12.6217 23.5819 12.6217 28.7913V29.9068L13.7299 30.0323C16.7153 30.3703 19.0903 31.5267 20.9915 33.5676C22.879 35.594 23.7966 37.8684 23.7966 40.5203C23.7967 43.3524 22.898 45.6677 21.0495 47.5991Z" fill="#1D4444"/>
<path d="M49.0816 27.7296C49.6057 23.7045 53.1316 20.0623 59.5825 16.8897L60.7356 16.3227L56.0539 7.45264L54.9593 8.00494C41.1445 14.9756 34.1399 24.8277 34.1399 37.2875C34.1399 41.589 35.5219 45.3038 38.2475 48.3285C41.007 51.3906 44.3328 52.9434 48.1334 52.9434C51.5554 52.9434 54.4401 51.724 56.7075 49.319C58.9554 46.9347 60.0953 43.9744 60.0953 40.5199C60.0953 37.2523 58.926 34.3403 56.6202 31.8648C54.5904 29.6859 52.0585 28.2981 49.0816 27.7296ZM54.8904 47.6056C53.0883 49.5168 50.8783 50.4459 48.1334 50.4459C45.0273 50.4459 42.4006 49.2065 40.1029 46.6566C37.7709 44.0687 36.6374 41.0042 36.6374 37.2875C36.6374 31.5783 38.2527 26.4238 41.4376 21.9673C44.4767 17.7158 49.0343 13.962 54.9955 10.7982L57.3354 15.2317C50.1541 19.0236 46.5153 23.5811 46.5153 28.7911V29.904L47.6207 30.0317C50.5448 30.3692 52.8906 31.5257 54.7927 33.5674C56.6802 35.5936 57.5976 37.8678 57.5976 40.5201C57.5978 43.3556 56.7121 45.6735 54.8904 47.6056Z" fill="#1D4444"/>
</g>
<defs>
<clipPath id="clip0_31_28">
<rect width="60.3967" height="60.3967" fill="white" transform="translate(0.338867)"/>
</clipPath>
</defs>
</svg>
