<svg width="124" height="120" viewBox="0 0 124 120" fill="none" xmlns="http://www.w3.org/2000/svg">
<rect width="124" height="120" rx="16" fill="#261300"/>
<path d="M12 11V108.5H112V11H12ZM16.1672 15.1672H107.834V104.334H16.1672V15.1672ZM46.7078 66.2078L43.4156 78.7078C43.3328 79.0406 43.2078 79.125 42.7906 79.125H36.6656C36.2484 79.125 36.1656 79 36.2484 78.5L48.0812 37.0828C48.2891 36.3328 48.4141 35.6656 48.4984 33.625C48.4984 33.3328 48.6234 33.2078 48.8313 33.2078H57.5813C57.8734 33.2078 57.9984 33.2906 58.0813 33.625L71.3313 78.5828C71.4141 78.9156 71.3312 79.125 70.9984 79.125H64.0813C63.7484 79.125 63.5391 79.0422 63.4562 78.75L59.9984 66.2078H46.7078ZM58.2906 59.4578L53.3328 39.875H53.25C52.375 44.75 50.1672 53 48.4172 59.4578H58.2906ZM77.0406 36.2906C77.0406 33.6234 78.9156 32.0406 81.2906 32.0406C83.8328 32.0406 85.5406 33.7484 85.5406 36.2906C85.5406 39.0406 83.7484 40.5406 81.2078 40.5406C78.7906 40.5406 77.0406 39.0406 77.0406 36.2906V36.2906ZM77.5406 45.7484C77.5406 45.4156 77.6656 45.2484 78.0406 45.2484H84.5828C84.9156 45.2484 85.0828 45.3734 85.0828 45.7484V78.6234C85.0828 78.9562 85 79.1234 84.5828 79.1234H78.125C77.7078 79.1234 77.5828 78.9156 77.5828 78.5812V45.75L77.5406 45.7484Z" fill="#FF7C00"/>
</svg>
