<svg width="124" height="120" viewBox="0 0 124 120" fill="none" xmlns="http://www.w3.org/2000/svg">
<rect width="124" height="120" rx="16" fill="#1572B6"/>
<path d="M61.9951 50.46H77.3326L78.3901 38.5913H61.9951V27H62.0364H91.0576L90.7801 30.1087L87.9339 62.0513H61.9951V50.46Z" fill="white"/>
<path d="M62.0663 80.5612L62.0138 80.5762L49.1063 77.0887L48.2813 67.845H42.0075H36.645L38.2688 86.0437L62.01 92.6362L62.0663 92.6212V80.5612Z" fill="#EBEBEB"/>
<path d="M76.3464 61.5601L74.9514 77.0813L62.0251 80.5688V92.6288L85.7851 86.0438L85.9614 84.0863L87.9751 61.5601H76.3464Z" fill="white"/>
<path d="M62.0362 27V34.2V38.5612V38.5913H34.0763H34.0388L33.8063 35.985L33.2775 30.1087L33 27H62.0362Z" fill="#EBEBEB"/>
<path d="M61.9951 50.4601V57.6601V62.0213V62.0513H49.2864H49.2489L49.0164 59.4451L48.4914 53.5688L48.2139 50.4601H61.9951Z" fill="#EBEBEB"/>
</svg>
