<svg width="124" height="120" viewBox="0 0 124 120" fill="none" xmlns="http://www.w3.org/2000/svg">
<rect width="124" height="120" rx="16" fill="#101010"/>
<path d="M50 95.9998C56.6275 95.9998 62 90.6273 62 83.9998V71.9998H50C43.3725 71.9998 38 77.3725 38 83.9998C38 90.6273 43.3725 95.9998 50 95.9998Z" fill="#0ACF83"/>
<path d="M38 60C38 53.3725 43.3725 48 50 48H62V72H50C43.3725 72 38 66.6272 38 60Z" fill="#A259FF"/>
<path d="M38 36C38 29.3725 43.3725 24 50 24H62V48H50C43.3725 48 38 42.6273 38 36Z" fill="#F24E1E"/>
<path d="M62 24H74C80.6275 24 86 29.3725 86 36C86 42.6273 80.6275 48 74 48H62V24Z" fill="#FF7262"/>
<path d="M86 60C86 66.6272 80.6275 72 74 72C67.3725 72 62 66.6272 62 60C62 53.3725 67.3725 48 74 48C80.6275 48 86 53.3725 86 60Z" fill="#1ABCFE"/>
</svg>
