<svg width="124" height="124" viewBox="0 0 124 124" fill="none" xmlns="http://www.w3.org/2000/svg">
<g clip-path="url(#clip0_206_122)">
<path d="M120.839 56.5536L67.4454 3.16194C64.3725 0.0871319 59.3854 0.0871319 56.3077 3.16194L45.2213 14.2503L59.2856 28.3146C62.5552 27.2112 66.3023 27.9513 68.9072 30.5563C71.5258 33.1777 72.2601 36.9568 71.1296 40.237L84.6843 53.7927C87.9635 52.6622 91.7484 53.3926 94.366 56.016C98.0279 59.6749 98.0279 65.6066 94.366 69.2675C90.7041 72.9294 84.7744 72.9294 81.1106 69.2675C78.3574 66.5124 77.6764 62.4679 79.0714 59.0753L66.4311 46.435L66.4292 79.7029C67.3224 80.1437 68.1642 80.7327 68.9082 81.4738C72.5681 85.1327 72.5681 91.0624 68.9082 94.7292C65.2473 98.3881 59.3137 98.3881 55.6567 94.7292C51.9967 91.0634 51.9967 85.1337 55.6567 81.4738C56.5615 80.5699 57.6077 79.8869 58.7247 79.4297V45.8538C57.6077 45.3965 56.5634 44.7184 55.6567 43.8088C52.8841 41.0381 52.2167 36.9694 53.6388 33.5633L39.7731 19.6975L3.16206 56.3066C0.0862793 59.3843 0.0862793 64.3714 3.16206 67.4472L56.5567 120.839C59.6315 123.914 64.6167 123.914 67.6963 120.839L120.84 67.6952C123.915 64.6185 123.915 59.6284 120.839 56.5536V56.5536Z" fill="#F34F29"/>
</g>
<defs>
<clipPath id="clip0_206_122">
<rect width="124" height="124" fill="white"/>
</clipPath>
</defs>
</svg>
