<svg width="124" height="120" viewBox="0 0 124 120" fill="none" xmlns="http://www.w3.org/2000/svg">
<rect width="124" height="120" rx="16" fill="#E55638"/>
<path fill-rule="evenodd" clip-rule="evenodd" d="M62.0635 50.4596H46.7263L45.6669 38.5905H62.0635V27H62.0231H33L33.2773 30.1095L36.1261 62.0497H62.0635V50.4596Z" fill="#EAEAEA"/>
<path fill-rule="evenodd" clip-rule="evenodd" d="M62.0634 80.5614L62.0129 80.5744L49.1043 77.0888L48.2788 67.8452H42.0065H36.6438L38.2678 86.0438L62.0101 92.6351L62.0634 92.62V80.5614Z" fill="#EAEAEA"/>
<path fill-rule="evenodd" clip-rule="evenodd" d="M62.0232 50.4595V62.0496H76.2959L74.9506 77.0818L62.0232 80.5709V92.6295L85.7842 86.0437L85.9586 84.0859L88.6827 53.5717L88.965 50.4595H85.8416H62.0232Z" fill="#FEFEFE"/>
<path fill-rule="evenodd" clip-rule="evenodd" d="M62.0232 27V34.1987V38.5622V38.5905H89.9829H90.0198L90.2522 35.9852L90.7806 30.1095L91.0575 27H62.0232Z" fill="#FEFEFE"/>
</svg>
