<svg width="124" height="120" viewBox="0 0 124 120" fill="none" xmlns="http://www.w3.org/2000/svg">
<rect width="124" height="120" rx="16" fill="white" fill-opacity="0.7"/>
<path d="M18.1803 35.0188C9.56394 47.4023 10.6366 63.5156 17.2186 76.675C17.3749 76.9906 17.5389 77.3008 17.7007 77.6109L18.0085 78.2039L18.2007 78.5453L18.5436 79.1594C18.7483 79.5195 18.9577 79.8781 19.1718 80.2367L19.5303 80.8273C19.7678 81.2109 20.0108 81.5898 20.2593 81.968L20.5702 82.4477C20.9132 82.9594 21.2639 83.4703 21.6264 83.9719L21.6569 84.0109L21.835 84.2516C22.1483 84.6836 22.471 85.1102 22.7975 85.532L23.16 85.993C23.4514 86.3594 23.7475 86.7234 24.0491 87.0859L24.3889 87.4922C24.7936 87.9687 25.2069 88.443 25.628 88.9078L25.6538 88.9336L25.7014 88.9867C26.1132 89.4359 26.5343 89.875 26.9608 90.3141L27.3647 90.7211C27.6952 91.0539 28.0311 91.3812 28.3702 91.707L28.7819 92.0977C29.235 92.525 29.6928 92.9437 30.16 93.3531L30.1819 93.3703L30.4218 93.575C30.8335 93.9313 31.2522 94.2852 31.6741 94.632L32.1928 95.0453C32.5374 95.3219 32.8858 95.5937 33.2366 95.8609L33.7944 96.2852C34.1819 96.5703 34.5718 96.8508 34.9655 97.125L35.3921 97.4273L35.5093 97.5109C35.8827 97.768 36.2647 98.0156 36.6468 98.2633L37.1389 98.5914C37.7249 98.9617 38.3186 99.3281 38.9194 99.682L39.4116 99.9594C39.853 100.214 40.2975 100.464 40.7475 100.709C40.9913 100.84 41.2413 100.964 41.4866 101.09C41.8046 101.256 42.1202 101.425 42.4436 101.587L42.6647 101.694L43.0561 101.883C43.5569 102.122 44.0616 102.357 44.5718 102.584L44.8921 102.727C45.4764 102.983 46.0655 103.228 46.66 103.462L47.0905 103.632C47.6405 103.844 48.1983 104.053 48.7585 104.25L48.9678 104.323C49.5827 104.537 50.203 104.737 50.828 104.931L51.2772 105.066C51.9132 105.257 52.5421 105.486 53.1975 105.607C94.8686 113.206 106.973 80.5656 106.973 80.5656C96.8069 93.8102 78.7616 97.3039 61.6639 93.4141C61.0163 93.268 60.3882 93.0656 59.7561 92.8789L59.2804 92.7344C58.6632 92.5453 58.0514 92.3461 57.4428 92.1367L57.1905 92.0453C56.6452 91.8539 56.1069 91.6516 55.5702 91.4445L55.1155 91.2656C54.528 91.0336 53.9436 90.7914 53.3663 90.5383L53.0171 90.3836C52.521 90.1586 52.0303 89.932 51.5413 89.6969L51.1147 89.4922C50.7311 89.3055 50.3514 89.107 49.9733 88.9117C49.7202 88.7781 49.4624 88.6523 49.2116 88.5133C48.7491 88.2656 48.296 88.0086 47.8436 87.7461L47.3819 87.4883C46.7811 87.1352 46.1882 86.7687 45.6007 86.3969L45.1202 86.0766C44.6944 85.8023 44.2702 85.5227 43.8522 85.2336L43.4444 84.9469C43.0413 84.6617 42.6421 84.3734 42.246 84.0805L41.7155 83.6789C41.3522 83.4016 40.9913 83.1219 40.6343 82.8336L40.1522 82.4469C39.6975 82.0727 39.2491 81.6977 38.8054 81.3117L38.6577 81.1875C38.178 80.7664 37.7077 80.3344 37.2421 79.9008L36.8428 79.5172C36.4983 79.1891 36.1593 78.8586 35.8257 78.5195L35.4272 78.1219C35.003 77.6875 34.5866 77.2477 34.1788 76.8016L34.1171 76.7359C33.6858 76.2641 33.2639 75.782 32.8507 75.2953L32.5194 74.9016C32.2116 74.5305 31.9061 74.1547 31.6077 73.775L31.2741 73.3594C30.9155 72.8938 30.5647 72.4305 30.2218 71.9578C20.7296 59.0094 17.3186 41.1516 24.9053 26.4859M44.928 24.5844C38.696 33.5516 39.035 45.5562 43.896 55.0398C44.7108 56.6297 45.6272 58.1727 46.6522 59.6406C47.5858 60.9789 48.621 62.5711 49.86 63.6461C50.3093 64.1406 50.7788 64.6234 51.2585 65.0977L51.6272 65.4609C52.0928 65.9125 52.5655 66.3562 53.0553 66.7875L53.1132 66.8375L53.1272 66.8516C53.6686 67.3266 54.2272 67.782 54.7952 68.232L55.1741 68.5273C55.7436 68.9641 56.3241 69.3922 56.9186 69.8016L56.9694 69.8398C57.2319 70.0211 57.4991 70.1898 57.7655 70.3648L58.1428 70.6141C58.5678 70.8867 58.9983 71.1523 59.4358 71.407L59.6194 71.5133C59.9968 71.7305 60.3788 71.9445 60.7624 72.1523L61.1694 72.3641C61.4343 72.5023 61.6991 72.6437 61.9686 72.7781L62.0897 72.8328C62.6389 73.1031 63.1928 73.3641 63.7585 73.6102L64.1272 73.7617C64.5796 73.9539 65.0366 74.1414 65.4944 74.3164L66.0803 74.5313C66.4968 74.6859 66.9147 74.8266 67.3358 74.968L67.9038 75.15C68.503 75.3359 69.0952 75.5711 69.7194 75.675C101.894 81.0055 109.322 56.2328 109.322 56.2328C102.626 65.8758 89.6593 70.4773 75.8225 66.8852C75.2077 66.7234 74.6022 66.5484 73.9999 66.3586L73.4522 66.1812C73.0241 66.043 72.5991 65.8961 72.178 65.7422L71.603 65.5281C71.1405 65.35 70.6843 65.1672 70.2311 64.975L69.8616 64.8187C69.2936 64.5719 68.7343 64.3109 68.1835 64.0383C67.8999 63.9 67.621 63.7539 67.3413 63.6102L66.8554 63.3602C66.4975 63.1664 66.1413 62.9648 65.7905 62.7586L65.5358 62.6141C65.0999 62.3602 64.671 62.0977 64.246 61.8266L63.8569 61.5672C63.5764 61.3859 63.2968 61.2008 63.0218 61.0148C62.4288 60.6055 61.8514 60.1773 61.2827 59.743L60.8913 59.4344C54.835 54.6531 50.0335 48.1172 47.7514 40.707C45.3593 33.0227 45.8749 24.3961 50.0194 17.3945M67.4241 16.7891C63.7507 22.1953 63.3897 28.9094 65.9389 34.8797C68.6272 41.218 74.135 46.1891 80.5639 48.5477C80.8288 48.6453 81.0944 48.7328 81.3624 48.8242L81.7147 48.9359C82.0936 49.0547 82.4694 49.193 82.8608 49.2672C100.626 52.7 105.445 40.1508 106.727 38.3031C102.507 44.3805 95.4132 45.8391 86.7093 43.7266C86.0218 43.5602 85.2663 43.3117 84.6038 43.0766C83.7538 42.7734 82.9163 42.4281 82.103 42.0383C80.5577 41.2953 79.0843 40.3945 77.7186 39.3633C69.9304 33.4531 65.0921 22.1805 70.1741 13" fill="#0868AC"/>
</svg>
