<svg width="124" height="120" viewBox="0 0 124 120" fill="none" xmlns="http://www.w3.org/2000/svg">
<rect width="124" height="120" rx="16" fill="#F5DE19"/>
<path d="M69.8888 69.4216C70.7834 71.2389 72.1733 72.7663 73.8984 73.8279C75.6234 74.8894 77.6133 75.4419 79.6388 75.4216C83.7263 75.4216 86.34 73.3779 86.34 70.5466C86.34 67.1716 83.655 65.9641 79.155 63.9954L76.6875 62.9379C69.5625 59.9041 64.8375 56.1054 64.8375 48.0729C64.8375 40.6741 70.4625 35.0379 79.2863 35.0379C82.1426 34.8316 84.9966 35.4709 87.492 36.876C89.9874 38.2811 92.0139 40.3898 93.3187 42.9391L85.605 47.8704C85.1026 46.6063 84.2278 45.5249 83.0966 44.7694C81.9654 44.014 80.6313 43.6202 79.2713 43.6404C78.6779 43.581 78.0786 43.6458 77.5116 43.8308C76.9447 44.0158 76.4225 44.3169 75.9783 44.7148C75.5342 45.1128 75.1778 45.5989 74.9319 46.1422C74.6859 46.6855 74.5559 47.2741 74.55 47.8704C74.55 50.8291 76.3838 52.0291 80.6175 53.8704L83.085 54.9279C91.47 58.5241 96.21 62.1879 96.21 70.4266C96.21 79.3104 89.2313 84.1779 79.86 84.1779C76.2086 84.4105 72.568 83.5815 69.3773 81.7909C66.1867 80.0003 63.5824 77.3246 61.8788 74.0866L69.8888 69.4216ZM35.0325 70.2766C36.5813 73.0254 37.9913 75.3504 41.3813 75.3504C44.6213 75.3504 46.6687 74.0829 46.6687 69.1516V35.6004H56.535V69.2829C56.535 79.4979 50.535 84.1479 41.8013 84.1479C38.7141 84.3166 35.6481 83.5473 33.0063 81.9409C30.3646 80.3346 28.2707 77.9665 27 75.1479L35.0325 70.2766Z" fill="black"/>
</svg>
