<svg width="124" height="120" viewBox="0 0 124 120" fill="none" xmlns="http://www.w3.org/2000/svg">
<rect width="124" height="120" rx="16" fill="#777BB3"/>
<path d="M39.0357 64.6156C41.1384 64.6156 42.7081 64.2332 43.7011 63.4794C44.6837 62.7334 45.3623 61.4404 45.718 59.6371C46.0497 57.9515 45.9233 56.7746 45.3426 56.1394C44.7489 55.4907 43.4651 55.1617 41.5272 55.1617H38.1671L36.3041 64.6158H39.0356L39.0357 64.6156ZM28.0451 76.2614C27.8891 76.2614 27.741 76.1926 27.6418 76.0737C27.5928 76.015 27.5575 75.9463 27.5386 75.8726C27.5196 75.7989 27.5174 75.722 27.532 75.6474L32.469 50.594C32.4921 50.4765 32.556 50.3706 32.6497 50.2945C32.7433 50.2184 32.8609 50.1768 32.9822 50.1768H43.6225C46.9665 50.1768 49.4556 51.0706 51.0201 52.8389C52.5929 54.6145 53.0786 57.097 52.4636 60.2165C52.2133 61.4875 51.7829 62.6677 51.1844 63.7249C50.5849 64.7829 49.793 65.7618 48.8299 66.635C47.6769 67.6994 46.3719 68.4712 44.9547 68.9253C43.56 69.3735 41.7689 69.6009 39.6309 69.6009H35.3224L34.092 75.8444C34.0689 75.9618 34.005 76.0677 33.9114 76.1439C33.8178 76.22 33.7003 76.2617 33.5789 76.2617H28.0451V76.2614Z" fill="black"/>
<path d="M38.5983 55.6773H41.5276C43.8664 55.6773 44.679 56.1835 44.9551 56.4852C45.4131 56.9861 45.4995 58.0422 45.2052 59.5392C44.8744 61.2152 44.2613 62.4035 43.3826 63.0708C42.483 63.7539 41.0204 64.1001 39.0361 64.1001H36.9385L38.5981 55.6773H38.5983ZM43.6227 49.661H32.9824C32.7397 49.6611 32.5046 49.7444 32.3174 49.8966C32.1301 50.0489 32.0024 50.2606 31.9561 50.4956L27.0192 75.5493C26.9898 75.6986 26.9942 75.8525 27.0322 75.9999C27.0702 76.1473 27.1407 76.2846 27.2388 76.402C27.3369 76.5194 27.4601 76.6139 27.5995 76.6788C27.739 76.7437 27.8913 76.7773 28.0455 76.7773H33.5788C33.8215 76.7774 34.0567 76.6941 34.2439 76.5418C34.4312 76.3896 34.559 76.1778 34.6053 75.9428L35.7534 70.1165H39.6311C41.8238 70.1165 43.6698 69.8807 45.1173 69.4157C46.6057 68.9387 47.9755 68.1299 49.1874 67.0119C50.1898 66.1023 51.0173 65.0812 51.6412 63.9768C52.2651 62.8724 52.7165 61.6401 52.9776 60.3152C53.625 57.0313 53.099 54.4017 51.4143 52.4999C49.7461 50.6163 47.1246 49.6612 43.6231 49.6612M35.6703 65.1316H39.0361C41.2668 65.1316 42.9288 64.7173 44.0204 63.8881C45.1121 63.0589 45.8489 61.675 46.2317 59.7357C46.5976 57.8738 46.431 56.5598 45.7315 55.7942C45.0319 55.0286 43.6297 54.6459 41.5279 54.6459H37.7367L35.6705 65.1314M43.6233 50.6924C46.8242 50.6924 49.1593 51.5209 50.6271 53.178C52.0949 54.835 52.5366 57.1484 51.9511 60.1182C51.71 61.3415 51.3024 62.46 50.7285 63.4735C50.1546 64.487 49.4037 65.4147 48.4765 66.2554C47.3716 67.2753 46.1442 68.0019 44.7935 68.435C43.4429 68.8691 41.7228 69.0851 39.6314 69.0851H34.8918L33.5795 75.746H28.0462L32.9824 50.6924H43.6229" fill="white"/>
<path d="M65.151 69.6007C64.9948 69.6007 64.8469 69.5319 64.7477 69.413C64.6486 69.294 64.608 69.1379 64.6379 68.9867L66.8216 57.9013C67.0294 56.8471 66.9781 56.0904 66.6775 55.7707C66.4935 55.5752 65.9406 55.2474 64.3061 55.2474H60.3497L57.6039 69.1831C57.5808 69.3006 57.5169 69.4065 57.4233 69.4827C57.3296 69.5588 57.2121 69.6005 57.0907 69.6005H51.601C51.5239 69.6005 51.4477 69.5837 51.378 69.5512C51.3082 69.5188 51.2466 69.4715 51.1976 69.4129C51.1485 69.3542 51.1132 69.2855 51.0942 69.2118C51.0752 69.1381 51.073 69.0611 51.0877 68.9865L56.0246 43.9331C56.0478 43.8156 56.1117 43.7097 56.2053 43.6336C56.299 43.5575 56.4165 43.5159 56.5379 43.5159H62.0276C62.1047 43.5159 62.1809 43.5327 62.2506 43.5652C62.3204 43.5976 62.382 43.6448 62.431 43.7035C62.4801 43.7622 62.5154 43.8309 62.5343 43.9046C62.5533 43.9783 62.5556 44.0552 62.5409 44.1299L61.3495 50.1767H65.6057C68.8481 50.1767 71.0466 50.7406 72.3276 51.9005C73.6346 53.0838 74.0402 54.9757 73.5383 57.5248L71.2413 69.1835C71.2181 69.301 71.1543 69.4069 71.0606 69.483C70.967 69.5592 70.8494 69.6008 70.728 69.6008H65.1512L65.151 69.6007Z" fill="black"/>
<path d="M62.0274 43.0001H56.5376C56.2949 43.0001 56.0598 43.0834 55.8725 43.2357C55.6852 43.3879 55.5575 43.5997 55.5112 43.8347L50.5742 68.8881C50.5448 69.0374 50.5493 69.1913 50.5873 69.3387C50.6252 69.4861 50.6958 69.6235 50.7939 69.7408C50.892 69.8582 51.0152 69.9527 51.1547 70.0176C51.2942 70.0824 51.4465 70.1161 51.6007 70.1161H57.0905C57.3332 70.1161 57.5683 70.0328 57.7556 69.8806C57.9429 69.7283 58.0706 69.5165 58.1169 69.2815L60.7804 55.763H64.306C65.9378 55.763 66.2803 56.1068 66.294 56.1216C66.393 56.2264 66.5232 56.7129 66.3083 57.8027L64.1246 68.8881C64.0952 69.0374 64.0997 69.1913 64.1376 69.3387C64.1756 69.4861 64.2462 69.6235 64.3443 69.7408C64.4424 69.8582 64.5656 69.9527 64.7051 70.0176C64.8446 70.0824 64.9969 70.1161 65.1511 70.1161H70.728C70.9707 70.1161 71.2058 70.0328 71.3931 69.8806C71.5804 69.7283 71.7082 69.5165 71.7545 69.2815L74.0514 57.6229C74.5905 54.8864 74.1293 52.8333 72.6816 51.5207C71.3 50.2693 68.9856 49.6608 65.606 49.6608H61.9838L63.0544 44.2281C63.0838 44.0788 63.0794 43.9249 63.0414 43.7775C63.0035 43.63 62.9329 43.4927 62.8348 43.3753C62.7367 43.2579 62.6135 43.1634 62.474 43.0985C62.3345 43.0336 62.1821 43 62.0279 43M62.0279 44.0313L60.7156 50.6922H65.6062C68.6834 50.6922 70.8059 51.222 71.9742 52.2801C73.1426 53.3383 73.4922 55.0545 73.0255 57.4263L70.7285 69.0847H65.1516L67.3353 57.9997C67.5838 56.7387 67.4925 55.8785 67.061 55.4199C66.6295 54.9613 65.7111 54.7317 64.3066 54.7317H59.9186L57.0908 69.0847H51.6011L56.538 44.0313H62.0277" fill="white"/>
<path d="M82.2244 64.6156C84.327 64.6156 85.8967 64.2332 86.8898 63.4794C87.8723 62.7334 88.551 61.4408 88.9068 59.6371C89.2385 57.9515 89.1121 56.7746 88.5313 56.1394C87.9375 55.4907 86.6538 55.1617 84.7158 55.1617H81.3558L79.4927 64.6158H82.2242L82.2244 64.6156ZM71.2341 76.2614C71.0781 76.2614 70.93 76.1926 70.8308 76.0737C70.7818 76.015 70.7465 75.9464 70.7274 75.8727C70.7084 75.799 70.7062 75.722 70.7209 75.6474L75.6578 50.594C75.681 50.4765 75.7449 50.3706 75.8385 50.2945C75.9322 50.2183 76.0498 50.1767 76.1712 50.1768H86.8113C90.1557 50.1768 92.6444 51.0706 94.209 52.8389C95.7819 54.6145 96.2673 57.0967 95.6526 60.2165C95.402 61.4875 94.9717 62.6677 94.373 63.7249C93.7735 64.7829 92.9816 65.7618 92.0186 66.635C90.8655 67.6994 89.5606 68.4712 88.1433 68.9253C86.7486 69.3735 84.9575 69.6009 82.8195 69.6009H78.5105L77.2806 75.8444C77.2575 75.9619 77.1936 76.0678 77.0999 76.144C77.0062 76.2201 76.8886 76.2618 76.7672 76.2617H71.2339L71.2341 76.2614Z" fill="black"/>
<path d="M81.787 55.6773H84.7162C87.055 55.6773 87.8677 56.1835 88.1437 56.4852C88.6021 56.9861 88.6884 58.0422 88.3938 59.5391C88.0631 61.215 87.4498 62.4035 86.5712 63.0708C85.6716 63.7539 84.2091 64.1001 82.2248 64.1001H80.1277L81.7872 55.6773H81.787ZM86.8114 49.661H76.1711C75.9284 49.6611 75.6933 49.7444 75.5061 49.8966C75.3188 50.0489 75.1911 50.2606 75.1448 50.4956L70.208 75.5493C70.1786 75.6986 70.1831 75.8525 70.221 75.9999C70.259 76.1473 70.3296 76.2846 70.4276 76.402C70.5257 76.5194 70.6489 76.6139 70.7884 76.6788C70.9278 76.7437 71.0801 76.7773 71.2343 76.7773H76.7676C77.0103 76.7774 77.2455 76.6941 77.4328 76.5418C77.6201 76.3896 77.7478 76.1778 77.7941 75.9428L78.9421 70.1165H82.8198C85.0125 70.1165 86.8585 69.8807 88.306 69.4157C89.7943 68.9387 91.1641 68.1299 92.3764 67.0116C93.3788 66.1023 94.2042 65.0812 94.8299 63.9768C95.4555 62.8724 95.9052 61.6401 96.1662 60.3152C96.8137 57.0311 96.2877 54.4015 94.603 52.4997C92.9348 50.6163 90.3135 49.6612 86.8117 49.6612M78.8591 65.1316H82.2248C84.4555 65.1316 86.1174 64.7173 87.2091 63.8881C88.3008 63.0589 89.0376 61.675 89.4203 59.7357C89.7866 57.8738 89.6199 56.5598 88.9201 55.7942C88.2204 55.0286 86.8184 54.6459 84.7166 54.6459H80.9254L78.8593 65.1314M86.8119 50.6924C90.0129 50.6924 92.348 51.5209 93.8158 53.178C95.2835 54.835 95.7253 57.1484 95.1397 60.1182C94.8987 61.3415 94.4911 62.46 93.9172 63.4735C93.3433 64.487 92.5923 65.4147 91.6652 66.2554C90.5603 67.2753 89.3328 68.0019 87.9822 68.435C86.6315 68.8691 84.9114 69.0851 82.8201 69.0851H78.0805L76.7682 75.746H71.2349L76.1718 50.6926H86.8121" fill="white"/>
</svg>
