<svg width="124" height="120" viewBox="0 0 124 120" fill="none" xmlns="http://www.w3.org/2000/svg">
<rect width="124" height="120" rx="16" fill="#0C0824"/>
<path d="M14.3763 13.3763H110.624V106.999H14.3763V13.3763ZM10 111.375H115V9H10V111.375ZM80.7888 51C77.3313 51 76.15 52.7513 76.15 54.195C76.15 55.77 76.9375 56.865 81.5762 59.2688C88.4462 62.595 90.5762 65.7863 90.5762 70.47C90.5762 77.4713 85.24 81.2325 78.0212 81.2325C74.9232 81.3473 71.8439 80.7036 69.0512 79.3575C68.7437 79.2262 68.7025 79.0087 68.7025 78.6562V72.2175C68.7025 71.7787 68.92 71.6475 69.2275 71.8687C71.8502 73.5553 74.9031 74.4509 78.0212 74.4487C81.4787 74.4487 82.9225 73.005 82.9225 71.0362C82.9225 69.4612 81.9175 68.0625 77.4963 65.7862C71.2825 62.8125 68.7025 59.7863 68.7025 54.7613C68.7025 49.1175 73.12 44.4375 80.7775 44.4375C83.443 44.323 86.1046 44.7399 88.6075 45.6638C88.7516 45.7573 88.8683 45.8876 88.9454 46.0411C89.0225 46.1947 89.0573 46.366 89.0463 46.5375V52.5375C89.0463 52.8863 88.8287 53.1075 88.39 52.9762C86.0768 51.6446 83.4462 50.9643 80.7775 51.0075L80.7888 51ZM43.1613 56.205C44.1663 56.2912 44.9538 56.2913 46.705 56.2913C51.8238 56.2913 56.635 54.4987 56.635 47.5425C56.635 41.985 53.1775 39.1875 47.3613 39.1875C45.61 39.1875 43.9488 39.2738 43.1613 39.3188V56.205ZM35.3725 32.955C35.3725 32.6475 35.9837 32.43 36.3362 32.43C39.1375 32.2987 43.2925 32.2125 47.6237 32.2125C59.7438 32.2125 64.4687 38.8612 64.4687 47.3512C64.4687 58.4625 56.4175 63.2325 46.5325 63.2325C44.8712 63.2325 44.3012 63.1462 43.12 63.1462V79.9462C43.12 80.295 42.9888 80.4713 42.595 80.4713H35.9012C35.5525 80.4713 35.3763 80.34 35.3763 79.9462V32.9738L35.3725 32.955Z" fill="#31C5F0"/>
</svg>
