<svg width="124" height="120" viewBox="0 0 124 120" fill="none" xmlns="http://www.w3.org/2000/svg">
<rect width="124" height="120" rx="16" fill="white"/>
<path d="M19.0625 59C19.0625 76.0312 28.8437 90.7031 43.125 97.5875L22.8687 41.6094C20.5156 47.0438 19.0625 52.8437 19.0625 59ZM90.9844 56.825C90.9844 51.575 88.9906 47.7625 87.3594 45.05C85.1844 41.425 83.1937 38.5281 83.1937 34.9062C83.1937 30.9219 86.275 27.2969 90.4437 27.2969H90.9875C83.375 20.2313 73.2313 16.0625 62 16.0625C54.8942 16.1254 47.9114 17.9245 41.6598 21.303C35.4082 24.6815 30.0773 29.5371 26.1312 35.4469H28.85C33.3813 35.4469 40.2625 34.9031 40.2625 34.9031C42.6187 34.7219 42.8 38.1625 40.625 38.5281C40.625 38.5281 38.2687 38.8906 35.7344 38.8906L51.3156 85.2656L60.7344 57.1844L54.0312 38.8875L49.5 38.5312C47.1437 38.35 47.5062 34.9062 49.6812 34.9062C49.6812 34.9062 56.7438 35.45 60.9125 35.45C65.4438 35.45 72.325 34.9062 72.325 34.9062C74.6813 34.725 74.8625 38.1656 72.6875 38.5312C72.6875 38.5312 70.3312 38.8937 67.7969 38.8937L83.375 85.0938L87.75 70.7813C89.5625 64.8031 91.0094 60.6375 91.0094 56.8312L90.9844 56.825ZM62.725 62.8031L49.8625 100.125C53.6656 101.212 57.8313 101.937 62 101.937C67.0719 101.937 71.7812 101 76.3125 99.5813C76.1312 99.4 76.1313 99.2188 75.95 99.0375L62.725 62.8031ZM99.6813 38.5312L100.044 42.9063C100.044 47.2813 99.3188 52.1469 96.7844 58.3062L83.7406 96.1687C96.4219 88.7406 105.116 74.9719 105.116 59.0313C104.934 51.6031 102.941 44.7188 99.6781 38.5625L99.6813 38.5312ZM62 9C34.4625 9 12 31.4625 12 59C12 86.5375 34.4625 109 62 109C89.5375 109 112 86.5375 112 59C112 31.4625 89.5375 9 62 9ZM62 106.825C35.7312 106.825 14.3563 85.45 14.3563 59C14.3761 46.3702 19.402 34.2633 28.3327 25.3327C37.2633 16.402 49.3702 11.3761 62 11.3563C74.6298 11.3761 86.7367 16.402 95.6673 25.3327C104.598 34.2633 109.624 46.3702 109.644 59C109.644 85.45 88.2688 106.825 62 106.825V106.825Z" fill="#00749A"/>
</svg>
